<?xml version="1.0" standalone="no"?>
<!DOCTYPE svg PUBLIC "-//W3C//DTD SVG 20010904//EN"
 "http://www.w3.org/TR/2001/REC-SVG-20010904/DTD/svg10.dtd">
<svg version="1.0" xmlns="http://www.w3.org/2000/svg"
 width="996.000000pt" height="996.000000pt" viewBox="0 0 996.000000 996.000000"
 preserveAspectRatio="xMidYMid meet">
<metadata>
Created by potrace 1.14, written by Peter Selinger 2001-2017
</metadata>
<g transform="translate(0.000000,996.000000) scale(0.100000,-0.100000)"
fill="#000000" stroke="none">
<path d="M7855 8511 c-3 -5 -2 -12 3 -15 5 -3 9 1 9 9 0 17 -3 19 -12 6z"/>
<path d="M7790 8501 c0 -6 4 -13 10 -16 6 -3 7 1 4 9 -7 18 -14 21 -14 7z"/>
<path d="M8276 8498 c3 -5 10 -6 15 -3 13 9 11 12 -6 12 -8 0 -12 -4 -9 -9z"/>
<path d="M7909 8483 c-13 -16 -12 -17 4 -4 9 7 17 15 17 17 0 8 -8 3 -21 -13z"/>
<path d="M8051 8474 c0 -11 3 -14 6 -6 3 7 2 16 -1 19 -3 4 -6 -2 -5 -13z"/>
<path d="M8134 8473 c5 -27 -12 -42 -25 -22 -7 12 -9 12 -9 0 0 -9 -8 -12 -25
-9 -14 3 -28 1 -31 -4 -3 -4 -19 1 -35 12 -32 23 -38 21 -13 -4 14 -14 12 -16
-23 -15 -21 1 -53 -1 -70 -5 -32 -7 -39 -2 -34 27 1 5 -3 6 -8 2 -6 -3 -7 -13
-4 -23 6 -15 5 -15 -10 -3 -10 8 -20 11 -24 7 -3 -3 0 -6 7 -6 12 0 12 -2 1
-12 -11 -10 -14 -10 -18 0 -3 6 -9 12 -14 12 -6 0 -8 -4 -5 -8 2 -4 -5 -8 -17
-8 -12 -1 -46 -4 -74 -7 -36 -5 -53 -4 -53 4 0 6 -8 3 -17 -6 -16 -16 -17 -16
-25 4 -10 28 -17 27 -11 -1 4 -19 3 -20 -6 -8 -10 13 -11 13 -11 0 0 -9 -3
-11 -8 -4 -4 6 -16 14 -27 17 -20 7 -20 7 -1 -8 19 -14 19 -15 -6 -15 -15 0
-30 5 -33 10 -3 6 -12 10 -18 9 -9 0 -9 -2 1 -6 23 -9 12 -19 -25 -21 -20 -2
-40 -5 -45 -8 -8 -5 -11 4 -11 37 0 9 -6 16 -13 16 -7 0 -10 -5 -6 -11 17 -28
-3 -53 -27 -33 -12 9 -13 9 -7 0 9 -17 -65 -18 -81 -2 -8 8 -13 7 -18 -2 -5
-8 -4 -10 3 -5 7 4 12 2 12 -5 0 -7 -9 -9 -22 -6 -12 3 -29 2 -39 -4 -11 -6
-20 -5 -24 1 -3 5 -11 10 -16 10 -6 0 -8 -4 -5 -9 8 -12 -37 -8 -46 4 -5 6 -8
5 -8 -4 0 -8 -7 -11 -20 -8 -11 3 -20 2 -20 -2 0 -11 -60 -12 -61 -1 -1 5 -2
19 -3 29 0 11 -4 22 -7 26 -4 3 -5 -10 -4 -29 2 -20 1 -35 -3 -35 -4 1 -9 0
-12 -1 -18 -8 -87 -6 -99 4 -12 9 -13 8 -6 -3 6 -11 4 -13 -8 -8 -10 3 -17 2
-17 -4 0 -5 -12 -2 -27 7 -25 14 -26 14 -9 0 19 -16 19 -16 -5 -15 -13 0 -33
-2 -44 -4 -11 -2 -26 1 -34 7 -11 8 -13 8 -7 -1 4 -7 3 -13 -3 -13 -5 0 -12 8
-14 18 -4 16 -5 16 -6 0 -1 -21 -50 -25 -70 -5 -10 10 -11 9 -6 -4 5 -14 -1
-16 -40 -15 -26 1 -48 -1 -51 -5 -2 -4 -27 -7 -54 -6 -28 1 -50 -2 -50 -7 0
-5 -8 -2 -17 5 -10 8 -14 9 -10 2 5 -8 -2 -10 -23 -8 -16 2 -30 0 -30 -5 0
-10 -19 -8 -39 4 -9 6 -12 5 -7 -2 4 -7 -7 -10 -34 -9 -22 2 -40 -2 -40 -7 0
-5 -10 -1 -22 10 -14 11 -18 13 -10 3 10 -14 7 -16 -26 -17 -72 -2 -117 -8
-129 -15 -6 -4 -14 -3 -17 2 -3 5 1 12 10 15 8 3 13 10 10 15 -4 5 -1 12 4 14
6 3 5 4 -2 2 -7 -1 -12 -8 -10 -14 2 -10 -11 -15 -30 -12 -4 0 -5 -5 -2 -12 3
-9 -7 -13 -31 -14 -20 0 -35 4 -35 11 0 6 -5 4 -10 -4 -9 -13 -11 -13 -20 0
-9 13 -10 13 -10 0 0 -10 -10 -16 -27 -18 -22 -1 -24 0 -13 8 9 6 10 10 3 10
-6 0 -15 -4 -18 -10 -3 -5 -11 -10 -16 -10 -6 0 -8 4 -4 9 3 5 1 13 -5 16 -6
4 -10 3 -9 -2 4 -25 -5 -30 -55 -30 -29 0 -58 -3 -63 -6 -6 -4 -16 0 -23 8 -7
8 -17 15 -23 15 -6 0 -2 -6 8 -14 18 -13 17 -14 -11 -14 -16 0 -35 5 -42 11
-7 5 -15 7 -19 3 -3 -3 -1 -6 5 -6 7 0 12 -3 12 -7 0 -12 -90 -10 -90 2 0 5
-5 2 -11 -8 -8 -14 -14 -16 -25 -6 -10 8 -14 8 -14 0 0 -6 -7 -11 -15 -11 -8
0 -15 5 -15 10 0 6 -5 10 -11 10 -5 0 -7 -4 -4 -10 4 -6 -6 -11 -22 -11 -15
-1 -44 -2 -63 -3 -19 -1 -41 -5 -48 -9 -7 -5 -12 -3 -12 4 0 8 -4 8 -12 2 -17
-13 -48 -12 -48 1 0 6 -5 4 -10 -4 -5 -8 -10 -10 -10 -5 0 6 -5 3 -10 -5 -6
-10 -10 -11 -10 -3 0 10 -6 10 -26 1 -21 -10 -27 -9 -35 3 -6 10 -9 10 -9 2 0
-7 -4 -13 -10 -13 -5 0 -7 8 -4 18 4 13 2 13 -8 -3 -13 -20 -86 -35 -73 -15 3
5 1 10 -4 10 -6 0 -11 -7 -11 -17 0 -15 -1 -15 -19 1 -16 15 -19 15 -31 1 -7
-9 -20 -13 -28 -10 -7 3 -19 2 -25 -2 -18 -11 -37 -12 -37 -2 0 5 -5 9 -11 9
-5 0 -8 -4 -5 -8 2 -4 -14 -9 -37 -10 -69 -3 -101 -7 -114 -15 -7 -4 -16 0
-22 10 -6 11 -11 13 -11 5 0 -7 -4 -10 -10 -7 -5 3 -10 2 -10 -3 0 -5 -7 -9
-15 -9 -8 0 -15 5 -15 11 0 7 -3 7 -8 0 -4 -7 -38 -15 -77 -18 -156 -14 -181
-16 -212 -21 -23 -4 -33 -2 -33 7 0 10 -2 10 -9 -1 -5 -8 -16 -11 -24 -8 -8 3
-18 3 -21 -1 -4 -3 -24 -7 -46 -9 -34 -3 -39 -1 -33 14 4 14 2 13 -10 -3 -9
-12 -26 -20 -39 -19 -13 1 -33 -2 -46 -6 -20 -8 -22 -6 -18 16 4 21 2 24 -13
15 -12 -6 -21 -6 -28 1 -6 6 -10 5 -10 -5 0 -10 8 -13 26 -9 17 3 23 1 16 -6
-14 -14 -65 -22 -65 -10 0 5 -5 9 -11 9 -5 0 -8 -4 -5 -9 3 -5 -1 -12 -10 -15
-12 -5 -14 -1 -9 17 l7 22 -16 -22 c-10 -14 -25 -20 -41 -18 -14 1 -25 -3 -25
-9 0 -6 -4 -5 -9 3 -7 10 -13 11 -30 2 -16 -9 -21 -9 -21 0 0 8 -4 8 -13 2 -6
-6 -19 -11 -27 -11 -96 -6 -140 -11 -150 -17 -7 -4 -16 -1 -21 6 -6 9 -11 11
-16 3 -8 -10 -50 -16 -135 -18 -25 0 -44 -4 -42 -7 8 -13 -42 -3 -54 11 -10
13 -11 13 -6 -2 5 -15 0 -18 -32 -19 -61 -2 -98 -6 -115 -14 -10 -3 -20 -2
-24 4 -3 6 -14 11 -23 11 -14 0 -15 -2 -2 -10 10 -6 3 -9 -25 -9 -22 -1 -51
-2 -65 -4 -14 -2 -33 1 -44 6 -12 6 -16 6 -12 -1 3 -6 2 -13 -4 -17 -5 -3 -10
-1 -10 5 0 6 -5 8 -12 3 -21 -12 -39 -12 -31 0 5 9 3 9 -8 1 -19 -15 -143 -29
-135 -15 4 5 2 13 -4 16 -6 4 -9 1 -8 -6 2 -7 -1 -13 -7 -14 -5 0 -14 -3 -20
-6 -5 -4 -31 -6 -58 -5 -26 0 -47 -2 -47 -6 0 -5 -5 -8 -11 -8 -5 0 -7 6 -3
13 6 9 5 9 -8 0 -8 -7 -18 -10 -21 -6 -4 3 -13 0 -22 -7 -12 -10 -16 -9 -21 5
-5 13 -9 14 -15 4 -10 -17 -69 -21 -69 -6 0 8 -4 7 -9 -2 -5 -8 -16 -11 -25
-8 -9 4 -16 1 -16 -5 0 -7 -5 -6 -15 2 -8 7 -12 17 -8 23 3 6 1 7 -6 3 -9 -6
-9 -11 -1 -21 9 -11 7 -14 -9 -12 -12 1 -21 7 -21 14 0 7 -4 13 -10 13 -5 0
-7 -6 -4 -14 3 -8 1 -17 -5 -21 -12 -7 -54 18 -46 28 3 4 2 5 -2 2 -3 -3 -12
0 -20 6 -21 18 -15 2 8 -19 l20 -19 -25 0 c-14 0 -23 3 -20 8 10 16 -9 9 -23
-8 -14 -17 -14 -17 -9 2 5 17 4 18 -6 5 -17 -19 -59 -24 -70 -8 -6 10 -8 10
-8 0 0 -7 -4 -10 -10 -7 -5 3 -10 3 -10 -2 0 -4 -23 -9 -51 -11 -39 -2 -49 0
-44 10 4 7 -1 4 -9 -6 -14 -17 -16 -18 -16 -3 0 9 -4 17 -10 17 -5 0 -7 -6 -4
-13 3 -8 -4 -13 -17 -14 -15 -1 -18 1 -10 11 8 9 7 13 -4 13 -8 0 -12 -4 -10
-8 3 -3 -2 -12 -9 -18 -10 -8 -16 -9 -21 -1 -3 5 -11 10 -16 10 -6 0 -7 -5 -3
-12 5 -7 0 -9 -14 -6 -12 3 -22 3 -24 -1 -4 -9 -159 -62 -181 -62 -9 0 -15 -4
-12 -9 8 -13 -22 -19 -34 -7 -7 7 -12 8 -11 2 5 -26 -1 -37 -19 -32 -15 4 -18
1 -14 -12 5 -13 2 -12 -18 4 -13 11 -18 13 -11 5 17 -19 15 -30 -5 -30 -9 0
-13 -3 -10 -6 9 -9 -41 -47 -52 -39 -5 3 -13 0 -17 -6 -4 -8 -3 -9 4 -5 23 14
12 -2 -34 -50 -25 -27 -51 -48 -58 -46 -6 2 -8 0 -4 -3 4 -4 3 -16 -3 -27 -8
-15 -14 -17 -24 -8 -9 8 -15 8 -20 0 -4 -6 -1 -9 7 -8 7 2 13 -4 13 -12 0 -8
-5 -14 -12 -13 -7 2 -10 -4 -7 -12 8 -21 -6 -41 -17 -24 -6 10 -8 7 -8 -11 2
-28 -46 -141 -64 -152 -9 -6 -8 -8 1 -8 7 0 10 -5 7 -10 -4 -6 -12 -7 -18 -3
-7 4 -6 0 2 -10 7 -9 9 -17 3 -17 -5 0 -8 -9 -5 -20 3 -13 0 -20 -8 -20 -11 0
-11 -3 1 -11 12 -9 11 -10 -6 -6 -12 2 -21 -1 -21 -8 0 -7 5 -11 12 -9 15 6 7
-118 -9 -128 -8 -6 -8 -8 0 -8 16 0 23 -58 8 -64 -6 -2 -18 1 -25 7 -11 10
-11 9 0 -5 7 -9 10 -22 6 -27 -3 -7 0 -8 9 -5 9 3 13 11 9 17 -3 5 -2 7 4 4 5
-4 10 -19 11 -34 0 -15 5 -48 11 -73 8 -37 7 -48 -6 -62 -13 -14 -13 -20 -3
-33 9 -11 10 -18 1 -29 -9 -10 -8 -15 4 -20 8 -3 21 -3 29 0 8 3 17 1 21 -5 3
-6 1 -11 -4 -11 -6 0 -11 -5 -11 -11 0 -5 4 -8 9 -4 5 3 13 0 17 -6 5 -8 3 -9
-6 -4 -8 5 -11 3 -8 -6 3 -8 11 -13 17 -11 6 1 11 -2 11 -8 0 -5 -5 -10 -11
-10 -5 0 -7 -6 -3 -12 4 -7 4 -10 -1 -6 -4 4 -20 1 -36 -8 -16 -8 -29 -12 -29
-8 0 4 -6 1 -13 -5 -8 -6 -17 -8 -21 -4 -4 4 -10 3 -14 -2 -23 -33 -105 -54
-86 -23 4 7 2 8 -5 4 -8 -6 -9 -11 -1 -20 7 -10 -2 -20 -38 -43 -30 -19 -70
-58 -103 -104 -175 -235 -215 -316 -245 -494 -38 -225 -39 -386 -5 -485 31
-89 104 -242 135 -283 l27 -35 -39 -15 c-92 -37 -138 -147 -112 -270 9 -45 21
-64 94 -142 49 -53 82 -97 80 -108 -1 -9 2 -15 7 -11 5 3 7 10 4 15 -4 5 -1 9
4 9 16 0 13 -16 -5 -31 -13 -10 -20 -10 -37 0 -22 12 -22 12 -2 -6 l21 -18
-24 -35 c-13 -19 -28 -36 -33 -36 -5 -1 -11 -3 -14 -4 -3 -1 -9 -3 -14 -4 -5
0 -12 -4 -16 -8 -9 -9 17 -4 34 6 8 5 12 5 10 0 -2 -5 -14 -30 -27 -56 -32
-69 -47 -104 -51 -125 -1 -5 -5 -2 -10 5 -7 11 -9 11 -14 -2 -4 -9 -1 -15 6
-13 7 1 12 -4 11 -10 -1 -7 -2 -22 -3 -34 0 -11 -4 -18 -8 -16 -5 3 -9 -9 -10
-26 -6 -135 -9 -155 -18 -149 -5 3 -5 -1 2 -9 6 -8 10 -26 9 -41 -2 -14 1 -54
6 -88 7 -54 6 -64 -9 -76 -16 -12 -15 -12 7 -7 24 6 24 6 8 -11 -10 -10 -17
-25 -17 -34 1 -15 2 -15 6 1 8 30 18 18 17 -20 0 -21 3 -48 7 -60 6 -15 5 -23
-2 -23 -8 0 -7 -5 1 -15 7 -8 10 -22 6 -30 -3 -8 -1 -15 4 -15 5 0 8 -15 6
-34 -1 -19 1 -33 6 -30 4 3 9 -2 9 -10 1 -9 2 -22 3 -28 1 -7 -2 -19 -7 -26
-7 -9 -6 -11 6 -7 25 10 32 -32 10 -57 -18 -21 -18 -21 5 -9 23 12 27 7 22
-29 -1 -8 1 -12 6 -8 9 10 33 -34 25 -47 -3 -5 -6 -18 -6 -27 -1 -14 1 -15 12
-6 11 9 12 13 1 19 -9 6 -9 9 -1 9 6 0 20 -16 32 -36 24 -40 26 -48 9 -38 -7
4 -8 3 -4 -5 4 -6 10 -9 14 -7 9 5 32 -20 25 -28 -4 -3 1 -6 10 -6 22 0 21 -8
-1 -33 -16 -19 -16 -19 4 -7 19 12 24 11 38 -3 9 -8 16 -21 16 -28 0 -7 3 -10
6 -6 3 3 16 -3 28 -15 11 -11 37 -32 57 -47 19 -14 34 -31 32 -37 -2 -5 7 -10
18 -11 12 -1 25 -6 28 -11 3 -5 14 -12 25 -15 16 -6 16 -10 5 -25 -11 -14 -11
-15 1 -4 21 18 40 15 40 -7 0 -11 4 -22 9 -25 5 -4 7 4 3 16 -5 20 -3 21 10
11 8 -7 17 -10 21 -7 8 9 25 -28 22 -49 -2 -9 1 -15 5 -12 5 3 7 14 5 25 -2
11 0 20 6 20 5 0 9 -5 9 -12 0 -6 3 -9 6 -5 3 3 18 1 33 -5 23 -9 40 -13 76
-21 6 -2 15 -5 20 -8 6 -2 24 -4 42 -4 17 0 30 -2 28 -5 -2 -3 34 -5 81 -5 68
1 82 -1 73 -12 -14 -16 -23 -17 -13 -1 4 7 3 8 -5 4 -8 -6 -9 -12 -2 -20 6 -7
8 -16 4 -19 -13 -14 -21 -6 -19 16 3 29 -29 34 -44 7 -9 -16 -8 -18 6 -13 13
5 15 3 9 -7 -5 -8 -4 -11 3 -6 6 3 14 1 17 -5 4 -5 13 -8 21 -5 23 9 55 -15
42 -31 -8 -10 -7 -13 3 -14 8 0 3 -5 -10 -10 -13 -5 -21 -12 -18 -15 3 -3 15
-1 26 5 14 8 18 17 14 29 -6 14 -4 15 8 5 13 -10 16 -10 16 2 0 8 -4 12 -8 9
-4 -2 -6 5 -4 16 3 13 0 18 -7 14 -7 -5 -8 -2 -3 5 6 10 3 11 -13 2 -15 -8
-21 -7 -25 3 -8 20 22 29 41 14 13 -11 15 -10 9 4 -3 10 -1 20 5 24 7 5 8 2 3
-6 -5 -8 -3 -11 6 -8 8 3 13 10 12 15 -1 5 7 9 18 9 17 0 18 -2 5 -11 -14 -10
-8 -39 8 -35 4 1 12 -1 19 -3 9 -4 8 -8 -3 -16 -8 -5 -18 -7 -22 -5 -4 3 -8
-2 -8 -10 0 -9 -5 -15 -12 -14 -7 2 -12 -2 -13 -9 0 -21 -59 -63 -80 -57 -15
4 -17 3 -6 -4 12 -8 9 -17 -16 -51 -19 -26 -33 -37 -39 -31 -6 6 -10 0 -9 -18
0 -17 -5 -26 -13 -24 -7 1 -12 -3 -11 -10 4 -34 -2 -50 -17 -44 -9 4 -13 2 -8
-5 4 -7 -4 -20 -17 -31 -15 -11 -18 -16 -6 -12 20 7 21 1 5 -29 -7 -12 -13
-31 -15 -42 -2 -10 -7 -22 -11 -25 -4 -3 -8 -18 -8 -35 -1 -16 -3 -58 -4 -92
-2 -38 -7 -63 -14 -63 -6 0 -5 -4 3 -9 7 -5 11 -15 9 -22 -3 -8 -1 -23 5 -33
7 -15 6 -18 -6 -13 -19 7 -43 -18 -27 -28 6 -4 14 -4 17 -1 4 3 1 6 -6 6 -7 0
-10 4 -6 10 10 16 33 0 33 -23 0 -12 3 -33 7 -46 7 -19 5 -23 -6 -17 -8 4 -6
1 3 -6 9 -8 20 -27 24 -44 4 -16 12 -35 18 -43 8 -11 8 -13 -1 -7 -7 4 -13 2
-13 -3 0 -6 7 -11 16 -11 10 0 14 -6 11 -14 -3 -8 1 -17 9 -20 12 -5 13 -10 3
-28 -11 -21 -11 -22 4 -9 15 12 17 11 17 -3 0 -9 5 -16 10 -16 6 0 10 -4 10
-9 0 -5 -10 -7 -23 -4 -12 3 -19 3 -16 0 3 -4 14 -8 26 -10 19 -3 53 -29 53
-42 0 -3 15 -20 33 -38 17 -17 31 -35 29 -39 -1 -4 4 -8 12 -8 21 0 31 -21 15
-31 -9 -6 -10 -9 -2 -9 6 0 15 5 18 10 4 6 11 8 16 4 5 -3 7 -10 4 -15 -3 -5
1 -6 9 -3 9 4 18 -1 22 -10 3 -9 10 -13 15 -10 5 3 9 1 9 -3 0 -7 51 -34 72
-37 4 0 13 -7 20 -15 11 -12 11 -13 -1 -6 -10 6 -12 4 -6 -4 5 -9 10 -10 18
-2 6 6 16 7 27 1 10 -5 32 -12 51 -15 18 -3 39 -11 46 -17 9 -8 13 -7 13 2 0
9 8 7 26 -5 15 -9 24 -12 20 -7 -4 6 2 10 14 9 11 -1 20 -5 20 -9 0 -4 5 -8
11 -8 5 0 8 4 5 8 -2 4 4 8 15 8 10 0 19 -7 20 -16 0 -10 3 -9 9 5 6 13 9 15
9 5 1 -13 2 -13 11 0 6 10 10 11 10 3 0 -7 5 -13 11 -13 5 0 8 4 5 9 -3 4 5 8
17 7 12 -1 26 3 30 9 5 5 6 -3 3 -20 l-6 -30 14 25 c8 15 23 24 38 25 12 0 28
4 35 8 6 4 15 3 18 -3 5 -8 12 -7 23 2 12 10 14 10 8 1 -9 -16 6 -17 21 -2 7
7 12 6 17 -6 3 -9 2 -14 -2 -11 -4 2 -14 0 -22 -6 -12 -8 -12 -9 2 -4 10 3 20
1 23 -4 3 -5 -3 -11 -12 -13 -10 -3 -2 -4 17 -3 21 1 40 -4 48 -14 11 -12 11
-11 0 10 -7 14 -12 29 -13 34 0 5 -7 11 -15 13 -9 3 -11 1 -5 -4 15 -12 17
-35 3 -31 -7 3 -13 13 -13 24 0 16 7 19 38 17 21 -2 36 1 33 5 -3 5 15 8 39 7
26 0 45 4 45 9 0 6 4 5 9 -3 5 -8 14 -10 22 -5 20 12 77 15 84 4 3 -5 -3 -7
-15 -5 -11 2 -22 -1 -25 -6 -4 -5 -11 -6 -17 -3 -8 5 -9 1 -5 -10 4 -10 7 -20
7 -22 0 -2 4 -4 10 -4 5 0 7 8 3 18 -3 9 -3 14 2 10 4 -4 15 -2 23 5 13 10 15
9 9 -6 -5 -15 -4 -16 13 -7 26 14 38 12 18 -3 -15 -12 -15 -14 5 -27 19 -12
21 -11 10 2 -11 12 -9 18 8 34 21 19 21 18 39 -4 10 -12 22 -22 26 -22 4 0 -1
9 -11 20 -12 14 -14 20 -5 20 7 0 18 -7 25 -17 9 -13 14 -13 20 -3 6 9 4 11
-5 5 -9 -6 -10 -1 -5 16 5 19 4 21 -4 9 -8 -11 -11 -12 -11 -2 0 7 -5 10 -11
6 -6 -3 -25 -7 -43 -9 -18 -1 -37 -4 -42 -8 -5 -3 -10 2 -10 11 0 14 9 17 46
16 25 -1 50 1 55 4 18 11 80 9 87 -2 4 -6 5 -19 2 -30 -4 -12 -2 -16 5 -11 7
4 10 20 7 36 -4 26 -2 28 15 19 22 -12 25 -21 7 -16 -7 1 -10 1 -5 -1 4 -3 5
-8 2 -13 -3 -4 2 -13 10 -20 10 -9 15 -9 15 -1 0 6 -5 11 -11 11 -5 0 -8 4 -4
10 3 5 12 7 20 4 8 -4 12 -11 9 -16 -4 -6 3 -5 15 1 14 8 27 8 39 2 10 -6 24
-6 32 -1 8 5 18 6 22 4 4 -3 5 3 1 12 -4 11 -3 15 5 10 6 -3 13 -2 16 3 4 5 1
13 -5 17 -7 4 -9 3 -5 -4 4 -7 -1 -9 -15 -7 -15 3 -19 0 -15 -11 3 -9 1 -14
-5 -12 -6 2 -9 6 -7 9 2 3 -2 13 -9 21 -11 12 -7 14 25 13 20 -1 42 2 49 7 7
5 14 5 18 -2 3 -6 12 -7 18 -3 23 14 78 13 84 -2 3 -8 9 -12 15 -9 5 3 4 12
-4 21 -12 15 -11 15 10 2 27 -17 28 -26 2 -34 -11 -3 -20 -11 -20 -16 0 -5 10
-4 23 3 12 7 24 12 27 11 3 -1 6 7 6 17 0 10 -4 17 -7 14 -4 -2 -10 -1 -13 4
-8 14 62 8 76 -7 8 -9 8 -11 1 -7 -6 3 -15 2 -18 -4 -5 -8 -12 -7 -22 2 -15
12 -15 11 -2 -9 11 -18 15 -20 22 -8 4 8 14 12 22 9 18 -7 19 0 4 29 -9 18 -9
20 2 10 17 -17 32 -17 23 -1 -4 7 -4 10 1 6 4 -4 17 -3 28 3 12 7 17 7 13 1
-3 -5 1 -13 10 -16 22 -9 26 -8 18 6 -4 7 -3 8 4 4 7 -4 12 -1 12 6 0 10 2 10
9 -1 6 -9 10 -10 14 -2 3 7 4 7 2 -1 -1 -7 -7 -12 -13 -11 -5 1 -13 -5 -16
-14 -6 -14 -4 -14 18 1 14 9 27 12 31 7 3 -5 1 -11 -5 -13 -6 -2 -6 -8 0 -18
8 -13 10 -12 10 3 0 9 5 17 10 17 6 0 10 -8 11 -17 0 -13 2 -14 6 -4 3 8 -2
20 -13 28 -11 8 -13 13 -5 13 8 0 19 7 25 16 10 13 12 13 12 -5 0 -11 -5 -17
-10 -14 -5 3 -6 1 -2 -6 4 -6 11 -9 16 -6 4 3 10 0 12 -7 3 -8 7 -6 11 5 3 9
1 19 -5 23 -7 5 -8 2 -3 -6 5 -8 4 -11 -3 -6 -6 4 -9 13 -6 21 4 10 17 13 45
10 29 -3 38 -1 32 8 -4 7 0 7 10 -2 14 -11 17 -11 17 0 0 12 2 12 9 0 6 -9 11
-10 15 -2 4 6 18 9 32 7 13 -3 24 0 24 5 0 6 5 7 11 3 16 -10 -8 -23 -37 -19
-13 1 -21 -1 -19 -5 3 -4 -9 -6 -25 -5 -17 1 -30 -2 -30 -7 0 -6 -6 -6 -14 1
-12 10 -14 9 -11 -6 2 -10 4 -21 4 -25 1 -5 10 1 21 12 20 20 21 20 44 3 13
-10 22 -21 20 -25 -2 -4 -1 -9 4 -12 4 -2 9 4 9 15 1 12 -5 19 -15 19 -13 0
-14 2 -3 13 10 10 15 9 24 -3 14 -17 42 -26 32 -10 -5 9 7 14 27 11 7 -1 5 20
-4 35 -5 7 5 10 28 9 18 -1 34 2 34 8 0 5 7 4 15 -3 12 -10 15 -10 15 1 0 12
2 12 9 0 5 -8 11 -9 15 -3 9 15 48 11 42 -4 -7 -19 6 -25 22 -11 13 10 14 8 8
-11 -5 -14 -3 -22 4 -22 6 0 9 4 6 9 -3 5 1 11 9 15 8 3 17 1 20 -4 3 -4 0
-10 -7 -12 -8 -3 -7 -6 3 -10 17 -7 23 23 6 33 -6 4 -6 9 0 12 14 9 55 -22 47
-35 -4 -7 -2 -8 5 -4 9 6 9 11 1 21 -9 11 -7 14 12 13 13 -1 29 -6 37 -12 11
-8 13 -8 7 2 -4 6 -2 12 3 12 6 0 11 4 11 8 0 12 -74 9 -82 -3 -5 -6 -8 -6 -8
2 0 12 -17 12 -37 0 -8 -5 -13 -3 -13 5 0 8 -3 9 -8 3 -10 -14 -32 -17 -32 -5
0 11 4 11 60 13 19 1 38 6 42 12 5 7 8 7 8 0 0 -6 9 -11 20 -12 11 -1 18 2 15
7 -3 4 3 7 12 5 10 -1 24 3 32 9 11 8 13 8 7 -1 -4 -7 -2 -13 3 -13 6 0 11 5
11 11 0 5 5 7 10 4 6 -3 10 -11 10 -16 0 -6 -4 -8 -8 -5 -14 9 -33 -10 -26
-27 5 -15 8 -14 26 6 14 16 18 17 14 5 -8 -25 16 -28 41 -5 13 11 26 18 29 14
4 -4 -4 -16 -17 -27 l-24 -21 28 17 c15 9 27 21 28 28 0 6 3 3 7 -6 6 -15 9
-14 19 7 8 18 8 27 1 32 -7 4 -8 1 -3 -7 6 -9 4 -11 -5 -5 -8 5 -11 4 -6 -3 7
-11 -12 -11 -31 1 -8 5 -13 3 -13 -4 0 -8 -5 -7 -17 2 -9 8 -14 9 -10 3 3 -6
0 -11 -8 -11 -8 0 -15 4 -15 9 0 8 3 9 55 13 17 2 32 3 35 5 19 7 39 7 34 -1
-3 -5 2 -9 11 -9 9 0 14 4 11 9 -3 4 7 8 22 9 15 0 32 1 37 2 6 2 24 4 40 5
17 2 32 3 35 5 3 1 13 3 23 5 15 3 16 1 5 -12 -11 -14 -10 -15 12 -8 22 7 23
6 11 -8 -7 -9 -17 -14 -22 -11 -5 3 -9 0 -9 -5 0 -14 17 -14 25 -1 4 6 15 8
25 5 10 -3 21 -1 25 5 5 7 11 5 20 -7 13 -17 14 -17 34 1 25 23 14 34 -32 31
-19 -1 -31 -6 -29 -13 1 -7 -2 -12 -8 -12 -5 0 -10 8 -10 18 0 18 17 22 115
27 22 1 42 3 45 4 3 2 20 4 38 6 27 3 32 0 28 -13 -3 -9 -1 -24 4 -32 8 -13
10 -12 10 3 0 10 5 15 10 12 6 -4 7 -11 4 -17 -4 -7 -2 -8 4 -4 6 4 8 14 5 23
-5 12 -3 14 8 7 14 -8 19 -10 38 -13 5 0 12 -9 14 -18 4 -17 5 -17 6 0 0 10
-5 20 -13 23 -8 3 -12 13 -9 22 4 15 3 15 -6 2 -9 -13 -11 -13 -11 0 0 13 -1
13 -11 0 -9 -13 -10 -13 -6 0 2 10 16 15 38 14 19 0 38 5 42 10 6 7 7 4 3 -6
-3 -12 0 -18 9 -18 8 0 14 5 13 12 -2 8 12 13 40 14 23 1 43 2 45 4 7 6 75 4
71 -2 -3 -5 0 -8 6 -8 6 0 8 -4 5 -10 -3 -5 -11 -10 -16 -10 -6 0 -7 5 -3 12
4 7 3 8 -4 4 -6 -4 -20 -2 -31 4 -13 7 -22 7 -26 0 -3 -5 3 -10 14 -10 11 0
23 -5 26 -10 8 -13 45 -13 46 0 5 40 18 54 35 39 11 -9 14 -8 14 2 0 8 6 5 15
-7 12 -15 14 -16 15 -3 0 10 10 16 28 17 15 1 45 3 67 5 22 1 43 7 47 12 5 6
8 6 8 -2 0 -9 27 -11 38 -3 1 2 15 3 31 4 16 0 33 4 37 8 4 4 13 3 21 -3 7 -7
13 -7 13 -2 0 8 21 10 63 4 19 -3 4 -17 -17 -17 -14 0 -22 4 -19 9 3 5 -3 5
-13 -1 -11 -5 -27 -8 -36 -7 -10 2 -22 -4 -28 -13 -8 -14 -9 -14 -10 -2 0 13
-1 13 -10 0 -5 -8 -10 -10 -10 -4 0 6 -7 11 -15 11 -8 0 -12 -3 -10 -7 2 -3
-7 -6 -20 -6 -13 0 -22 3 -20 6 2 3 -10 6 -26 6 -16 1 -29 -3 -29 -10 0 -6 -5
-4 -10 4 -6 9 -10 10 -10 3 0 -6 -9 -10 -20 -8 -23 4 -50 -19 -49 -43 0 -13 2
-12 9 4 11 27 27 38 35 24 3 -5 1 -10 -4 -10 -6 0 -11 -7 -11 -16 0 -12 6 -9
21 10 19 25 39 27 39 5 0 -6 -4 -7 -10 -4 -6 4 -7 -1 -3 -11 5 -14 8 -13 18 6
8 15 15 19 19 11 4 -6 4 -15 1 -21 -3 -6 1 -7 9 -4 20 8 20 9 -5 33 -18 17
-19 19 -4 17 10 -1 24 -13 32 -27 l14 -24 -7 25 c-6 22 -5 23 9 12 9 -8 18 -9
21 -3 8 13 46 10 46 -4 1 -5 6 -1 13 10 17 29 40 31 32 4 -5 -15 -4 -19 4 -15
6 4 11 14 11 22 0 8 5 14 11 14 5 0 8 -4 5 -9 -3 -5 1 -14 9 -21 10 -9 15 -9
15 -1 0 6 -5 11 -12 11 -24 0 4 14 32 16 21 2 28 -1 24 -9 -4 -7 -4 -9 1 -5 4
4 16 3 27 -3 17 -9 18 -8 9 10 -14 26 -14 28 4 28 9 0 14 -6 11 -14 -4 -9 -1
-11 5 -7 6 4 14 2 18 -4 4 -7 11 -4 19 8 8 14 9 21 0 26 -6 4 -8 3 -4 -4 3 -6
-1 -9 -11 -8 -9 2 -19 8 -21 15 -3 8 5 10 22 7 14 -3 28 -1 31 4 3 4 19 6 35
4 19 -3 30 -1 30 7 0 7 4 8 13 2 14 -11 27 -11 45 1 7 4 19 3 27 -4 12 -10 15
-10 15 0 0 9 10 10 36 5 22 -4 34 -3 30 3 -4 6 10 9 34 7 27 -2 38 0 34 7 -5
7 -2 8 7 2 18 -11 33 -12 40 -1 3 5 9 2 12 -6 4 -11 0 -15 -13 -12 -13 3 -18
-2 -17 -16 2 -23 17 -26 17 -2 0 13 3 14 11 6 6 -6 17 -9 24 -7 7 3 16 1 20
-5 3 -6 12 -11 18 -11 7 0 6 4 -3 11 -12 9 -10 10 9 5 29 -6 17 6 -22 22 -21
9 -26 9 -21 1 4 -8 3 -9 -4 -5 -7 4 -12 12 -12 17 0 12 38 7 68 -9 12 -7 28
-10 34 -6 7 5 9 2 6 -8 -5 -11 0 -14 18 -10 13 2 24 8 24 13 0 5 -7 5 -17 2
-10 -4 -14 -2 -9 5 3 6 1 14 -5 18 -7 4 -9 3 -6 -2 3 -6 -4 -10 -16 -11 -12 0
-16 1 -9 4 6 3 10 8 7 12 -2 5 14 7 36 5 28 -2 38 0 33 9 -5 8 -3 8 7 -1 15
-14 33 -16 25 -3 -3 4 19 8 49 7 29 -1 52 1 50 4 -2 4 10 6 28 5 18 -1 36 0
42 3 31 18 73 5 43 -14 -7 -5 -8 -3 -3 5 6 10 3 11 -11 3 -11 -5 -27 -8 -37
-7 -9 2 -15 0 -13 -4 3 -4 -4 -7 -14 -7 -10 0 -16 5 -13 10 3 5 1 6 -6 2 -15
-10 -6 -23 31 -42 16 -9 28 -12 25 -7 -3 5 8 16 24 25 16 10 31 13 34 7 4 -5
2 -9 -2 -9 -5 0 -17 -6 -28 -13 -14 -11 -15 -16 -5 -22 9 -6 11 -4 5 5 -6 10
-4 12 11 6 10 -4 15 -4 11 0 -7 7 21 33 36 34 4 0 7 -8 7 -17 0 -14 3 -13 16
5 15 22 17 23 35 6 18 -16 19 -16 13 -1 -6 16 -18 22 -38 18 -5 -1 -4 4 2 12
7 8 9 17 5 21 -4 4 0 4 10 0 9 -3 17 -11 17 -17 0 -6 6 -2 14 8 21 29 42 26
59 -11 11 -23 21 -32 32 -28 8 4 15 8 15 11 0 3 -7 3 -15 -1 -18 -6 -19 -2 -4
27 10 21 10 21 -5 3 -14 -17 -21 -11 -13 11 3 12 37 14 37 3 0 -6 5 -10 11
-10 5 0 7 5 3 12 -4 6 -3 8 4 4 6 -3 13 -2 17 3 3 6 19 8 35 6 18 -2 30 1 30
8 0 8 3 8 8 2 8 -12 47 -14 58 -3 4 4 13 3 21 -3 8 -8 13 -8 13 -1 0 6 8 9 18
8 9 -2 20 2 24 8 5 8 8 7 8 -2 0 -7 5 -10 11 -6 7 4 9 0 5 -12 -3 -11 -1 -26
4 -34 8 -13 10 -12 10 3 0 10 4 16 10 12 5 -3 7 -12 4 -19 -3 -8 -1 -17 4 -20
5 -3 8 8 6 25 -3 27 -2 30 11 19 8 -7 12 -17 8 -23 -3 -6 -1 -7 6 -3 9 6 9 11
0 22 -7 9 -8 14 -1 14 6 0 14 -4 17 -10 3 -5 16 -10 28 -10 17 1 15 4 -12 16
-19 8 -36 12 -39 9 -3 -3 -12 1 -20 8 -10 8 -13 8 -9 1 4 -7 1 -14 -7 -17 -10
-4 -12 0 -9 14 4 14 12 18 31 14 14 -2 30 -1 36 3 17 10 36 11 36 1 0 -5 11
-9 25 -9 14 0 25 -5 25 -11 0 -6 -7 -9 -15 -5 -8 3 -15 1 -15 -3 0 -5 7 -12
16 -15 8 -3 12 -10 9 -16 -3 -5 -2 -10 3 -10 6 0 13 7 16 16 3 8 2 12 -4 9
-13 -8 -13 1 1 27 9 16 8 19 -2 13 -8 -5 -10 -4 -5 3 10 17 19 15 35 -9 11
-19 11 -21 -3 -16 -10 4 -13 1 -9 -9 4 -11 8 -12 20 -3 12 10 13 8 9 -14 -2
-15 -1 -29 3 -31 4 -3 7 9 6 27 -2 43 4 52 20 30 10 -13 10 -20 2 -25 -9 -6
-9 -8 0 -8 16 0 26 17 13 25 -15 9 -12 25 5 25 8 0 14 -5 13 -11 -4 -16 40
-31 48 -17 4 7 3 8 -4 4 -7 -4 -12 -3 -12 3 0 6 -7 8 -15 5 -10 -4 -13 0 -10
14 3 15 -1 20 -16 19 -10 -1 -19 -4 -19 -7 0 -3 -10 -6 -23 -6 -13 0 -24 6
-24 13 0 9 4 10 14 2 8 -8 13 -8 13 -1 0 6 8 9 18 7 9 -1 25 2 34 6 10 6 19 5
23 -1 4 -6 12 -7 18 -3 22 14 82 10 94 -6 18 -24 15 -33 -6 -19 -11 7 -17 16
-14 22 3 5 1 6 -6 2 -6 -4 -9 -12 -6 -17 4 -5 1 -9 -4 -9 -6 0 -11 4 -11 8 0
4 -10 8 -23 8 -13 0 -24 -6 -24 -13 0 -6 4 -10 9 -7 4 3 8 -2 8 -10 0 -8 4
-17 9 -20 5 -4 7 3 4 14 -3 12 0 20 6 20 7 0 9 -5 5 -11 -4 -7 1 -7 15 1 17 9
26 9 37 0 11 -10 15 -9 20 3 4 12 11 14 30 6 17 -6 23 -6 19 1 -3 6 -13 10
-20 10 -9 0 -12 6 -9 18 5 14 4 15 -5 2 -9 -13 -11 -13 -11 0 0 13 -1 13 -11
0 -9 -13 -10 -13 -6 0 2 10 15 15 35 14 18 0 32 4 32 10 0 6 4 4 9 -4 13 -20
2 -34 -15 -19 -10 8 -14 8 -14 0 0 -11 13 -15 39 -12 8 2 10 -2 5 -11 -6 -10
-4 -10 9 1 14 11 20 11 32 1 8 -7 13 -16 10 -19 -2 -4 2 -8 10 -8 8 0 12 4 10
8 -3 4 2 9 9 12 8 3 19 15 25 26 9 16 8 19 -7 16 -9 -1 -16 -9 -16 -18 1 -9
-5 -18 -13 -21 -10 -4 -13 -1 -8 13 3 11 1 22 -4 26 -7 3 -8 0 -5 -9 3 -9 1
-16 -6 -16 -6 0 -8 5 -5 10 8 13 -18 8 -27 -5 -5 -6 -8 -5 -8 3 0 17 32 28 78
27 35 0 37 -2 35 -30 -1 -25 0 -27 10 -13 10 15 12 15 36 0 14 -10 22 -12 18
-5 -7 12 10 18 36 14 14 -2 38 27 27 34 -5 3 -10 1 -10 -5 0 -6 -5 -8 -12 -3
-7 4 -19 8 -26 9 -8 2 -17 6 -20 10 -4 4 1 4 10 1 10 -3 20 -2 22 2 6 9 54 6
63 -3 3 -3 11 1 18 8 8 7 34 12 66 11 30 -1 59 2 66 7 7 5 14 5 18 -2 3 -6 12
-7 18 -3 7 4 23 8 37 9 14 1 25 2 25 4 0 1 23 3 50 4 28 1 57 5 65 9 8 5 4 0
-9 -9 -24 -18 -64 -27 -55 -12 9 14 -11 9 -32 -8 -13 -11 -15 -17 -6 -20 6 -3
9 -11 5 -17 -7 -13 27 12 40 28 4 6 15 1 26 -12 15 -18 20 -20 25 -8 3 8 11
13 18 11 7 -1 9 -1 5 2 -4 2 3 14 17 27 24 22 48 27 62 12 4 -3 -3 -4 -15 -2
-14 2 -19 0 -15 -7 4 -6 3 -8 -3 -5 -6 4 -14 0 -17 -9 -8 -21 -8 -24 5 -24 5
0 7 5 3 11 -4 8 1 9 17 4 19 -5 21 -4 9 4 -8 6 -13 11 -10 12 3 0 13 2 23 4 9
2 22 -5 27 -16 6 -10 16 -19 23 -19 8 0 7 4 -3 10 -8 5 -12 12 -8 15 3 3 13
-1 21 -10 18 -17 27 -19 27 -6 0 5 -9 13 -20 16 -11 4 -18 10 -15 15 3 5 0 12
-6 16 -7 4 -9 3 -6 -3 3 -5 0 -10 -8 -10 -8 0 -16 6 -19 12 -6 17 40 10 59 -9
9 -8 23 -12 32 -9 12 5 14 3 8 -8 -8 -12 -6 -12 8 0 9 7 17 19 17 25 0 6 -5 4
-10 -4 -8 -12 -10 -12 -10 -1 0 10 -3 11 -13 2 -18 -14 -30 -2 -16 15 6 8 16
11 23 7 17 -11 36 -12 36 -3 0 15 73 3 86 -14 14 -20 40 -21 48 -1 3 8 10 15
16 15 6 0 9 -4 6 -8 -2 -4 0 -14 6 -22 8 -12 9 -11 4 3 -4 14 -2 17 12 13 9
-3 24 -1 32 4 11 7 18 3 28 -13 11 -18 12 -19 6 -2 -4 11 -6 28 -6 37 0 10 -4
18 -9 18 -6 0 -8 -4 -4 -9 6 -10 -13 -26 -21 -18 -9 8 36 48 46 42 5 -3 7 -18
4 -33 -2 -15 -1 -22 3 -16 12 17 36 22 55 13 12 -7 15 -5 12 9 -4 19 22 59 33
49 3 -4 -2 -17 -13 -29 l-19 -23 21 18 c12 10 26 17 31 15 6 -2 20 8 33 22 16
18 20 20 16 7 -3 -11 -2 -16 4 -12 6 4 9 14 8 22 -2 9 3 18 10 20 6 3 10 -1 9
-9 -2 -7 -2 -10 0 -5 3 4 9 4 15 1 5 -3 4 3 -3 14 -7 12 -18 18 -24 14 -5 -4
-14 -7 -20 -7 -5 0 -10 -5 -10 -12 0 -6 -3 -15 -7 -19 -5 -4 -8 2 -8 14 0 12
8 23 20 27 11 4 37 22 57 40 20 19 41 32 45 29 4 -3 8 0 8 6 0 6 5 8 10 5 6
-4 7 -12 4 -18 -4 -7 -4 -9 1 -5 4 4 15 2 24 -5 14 -11 15 -10 1 7 -14 18 -13
18 8 12 13 -5 22 -3 23 3 2 15 6 31 9 34 7 7 6 46 -2 41 -4 -3 -6 -10 -3 -15
3 -5 0 -6 -8 -3 -8 3 -18 1 -22 -5 -3 -7 0 -8 9 -5 9 3 16 1 16 -5 0 -6 -3
-10 -7 -10 -20 3 -34 -2 -28 -10 3 -5 1 -12 -5 -16 -24 -15 -7 29 22 58 18 18
33 34 33 37 0 3 11 17 24 30 13 14 21 19 16 12 -4 -9 0 -15 13 -19 12 -3 18
-11 16 -18 -3 -7 -1 -15 4 -19 5 -3 8 5 7 16 -1 12 -10 25 -21 29 -10 4 -15 8
-10 8 5 1 3 7 -3 15 -9 11 -8 15 4 20 8 3 14 9 13 13 -1 4 3 17 9 28 6 11 12
25 13 30 1 6 4 12 7 15 4 3 3 -1 -1 -7 -4 -7 -2 -13 3 -13 15 0 14 27 -1 33
-10 4 -10 6 0 6 7 1 10 6 6 13 -4 7 -3 8 5 4 8 -5 10 0 8 16 -7 34 10 71 29
64 8 -3 12 -2 9 4 -3 6 -1 10 4 10 6 0 11 -7 11 -15 0 -8 5 -15 11 -15 11 0 5
15 -18 42 -10 11 -11 18 -4 23 6 3 11 1 11 -4 0 -6 5 -11 12 -11 9 0 9 3 0 12
-19 19 -14 32 6 17 16 -13 16 -12 3 4 -13 17 -16 17 -26 3 -7 -9 -15 -13 -18
-10 -3 4 -4 -5 -1 -20 2 -14 0 -26 -5 -26 -5 0 -8 27 -7 60 1 43 4 59 13 55 7
-2 17 4 23 15 8 16 8 18 -5 14 -8 -3 -12 -10 -9 -15 3 -5 -3 -6 -12 -2 -12 4
-14 8 -6 11 10 3 10 7 1 18 -6 8 -8 14 -5 14 4 0 2 8 -3 18 -7 14 -6 19 4 19
7 0 11 -6 8 -13 -2 -6 1 -15 6 -19 6 -3 9 -12 5 -18 -3 -7 1 -4 9 5 8 10 18
14 22 10 4 -4 3 2 -3 14 -7 13 -8 25 -2 32 7 9 7 9 -2 2 -22 -18 -32 -11 -13
10 10 11 22 17 26 14 5 -3 6 3 2 12 -4 11 -8 13 -11 6 -3 -9 -9 -9 -23 -1 -11
5 -17 15 -13 21 4 7 9 6 15 -3 5 -8 9 -9 9 -3 0 6 -9 19 -20 29 -11 10 -20 23
-20 28 0 6 11 0 25 -13 21 -20 27 -21 38 -10 10 10 9 11 -1 5 -8 -4 -21 1 -33
14 -21 22 -58 19 -39 -4 5 -6 6 -16 2 -20 -4 -5 -2 -5 5 -1 8 4 10 -1 7 -18
-3 -18 1 -26 16 -31 11 -4 18 -11 14 -16 -3 -6 -12 -5 -22 3 -15 12 -16 11 -3
-4 9 -12 10 -18 2 -18 -12 0 -13 2 -15 40 -1 14 -10 40 -19 59 -20 40 -20 41
-6 41 5 0 7 -5 3 -12 -4 -7 -3 -8 5 -4 6 4 9 11 6 16 -3 5 8 7 24 5 19 -2 35
2 43 13 11 13 11 14 -2 7 -22 -13 -52 -17 -45 -5 3 6 -1 7 -9 4 -9 -3 -16 -1
-16 5 0 6 5 11 11 11 6 0 4 9 -5 22 -11 16 -12 26 -5 40 6 11 8 22 6 25 -3 2
-8 -5 -12 -16 -5 -17 -10 -19 -26 -11 -23 13 -21 31 6 47 24 15 11 17 -16 3
-15 -9 -19 -7 -19 5 0 9 5 13 10 10 6 -3 10 -1 10 5 0 7 -8 9 -20 5 -15 -5
-18 -3 -14 9 3 8 -3 19 -15 26 -14 7 -21 7 -21 0 0 -5 7 -10 15 -10 8 0 15 -5
15 -11 0 -6 -7 -8 -16 -5 -8 3 -2 -8 15 -24 18 -19 28 -38 26 -50 -2 -11 -1
-19 3 -18 14 3 42 -14 36 -23 -3 -5 -1 -9 4 -9 6 0 9 -10 8 -23 0 -13 -6 -24
-13 -24 -6 0 -9 7 -5 15 4 11 1 13 -9 7 -8 -4 -11 -5 -7 0 4 4 -1 20 -12 35
-11 15 -17 29 -14 32 2 3 -2 11 -10 17 -8 7 -12 20 -9 28 4 9 2 14 -3 11 -5
-2 -26 14 -47 37 -34 39 -36 43 -20 56 14 12 16 12 8 0 -6 -10 -4 -12 5 -6 9
6 11 4 5 -5 -6 -9 -4 -11 6 -5 12 7 12 6 1 -7 -8 -9 -9 -19 -4 -22 14 -8 22
30 9 43 -8 8 -8 11 0 11 7 0 15 -4 18 -10 3 -5 10 -10 16 -10 5 0 1 8 -8 18
-11 11 -22 15 -29 10 -19 -14 -25 4 -6 19 15 13 15 13 -6 3 -12 -6 -20 -15
-17 -19 2 -5 -4 -11 -15 -14 -22 -6 -43 15 -47 46 -3 21 -2 20 14 -3 10 -14
17 -29 15 -33 -1 -5 2 -6 8 -2 6 3 8 10 5 15 -3 5 4 12 15 15 19 6 16 10 -25
37 -38 25 -44 33 -31 40 18 10 21 28 5 28 -5 0 -7 -4 -4 -10 3 -5 2 -10 -3
-10 -17 0 -22 13 -9 28 9 13 9 14 0 8 -8 -4 -13 -1 -13 9 0 11 6 14 24 9 13
-3 26 -2 29 3 3 4 -9 8 -26 7 -39 0 -53 6 -36 17 7 4 22 3 33 -3 16 -8 18 -8
10 1 -26 28 -61 20 -55 -12 1 -5 -4 -5 -10 -1 -8 5 -9 3 -4 -6 6 -9 4 -11 -6
-5 -12 7 -12 5 -1 -6 11 -12 14 -12 23 1 8 12 9 11 7 -5 -2 -14 -11 -20 -27
-20 -14 0 -26 -6 -29 -13 -3 -11 0 -12 18 -2 18 10 21 9 15 -1 -6 -8 -4 -10 5
-4 9 6 11 4 5 -5 -6 -9 -4 -11 5 -5 9 6 11 4 5 -5 -6 -9 -4 -11 5 -5 9 5 11 4
6 -4 -4 -6 -12 -9 -17 -6 -5 4 -9 -1 -9 -9 0 -10 6 -13 15 -10 8 4 15 10 15
16 0 5 5 6 11 2 8 -4 7 -9 -2 -15 -10 -6 -10 -9 -2 -9 7 0 10 -7 7 -15 -4 -8
-10 -15 -15 -15 -4 0 -5 8 -2 17 5 13 2 15 -11 10 -13 -5 -19 -1 -23 12 -5 20
-29 35 -42 26 -5 -2 -6 7 -3 20 2 15 0 25 -7 25 -6 0 -11 -8 -12 -17 0 -13 -2
-14 -6 -4 -3 8 2 20 12 27 9 7 14 17 10 23 -8 14 -26 14 -22 0 1 -6 -5 -14
-13 -16 -13 -4 -13 -3 0 6 8 6 11 11 6 11 -6 0 -5 5 2 12 8 8 15 8 27 -2 18
-15 20 0 3 19 -9 10 -9 12 -1 7 6 -3 15 -2 18 4 4 6 16 8 27 4 16 -5 19 -3 12
7 -6 10 -3 10 11 -1 17 -14 18 -13 12 2 -3 10 -3 17 1 16 4 -1 17 3 28 10 12
6 24 8 28 5 3 -3 6 -1 6 6 0 7 5 9 10 6 6 -3 10 -1 10 4 0 6 4 11 10 11 5 0 7
-7 4 -15 -4 -8 -1 -15 6 -15 6 0 9 4 6 8 -7 11 67 48 87 43 5 -1 6 3 3 8 -4 5
8 21 26 36 18 14 26 24 18 23 -8 -2 -22 -11 -31 -20 -9 -10 -19 -14 -23 -10
-4 4 -7 2 -6 -3 5 -21 -1 -29 -9 -16 -7 10 0 21 25 38 19 12 40 23 46 23 6 0
8 3 5 7 -4 4 5 19 20 35 28 29 43 35 43 17 0 -5 -4 -8 -9 -4 -5 3 -13 0 -17
-7 -4 -7 -4 -10 1 -6 4 4 15 2 23 -5 13 -10 14 -9 7 2 -6 11 -4 13 7 9 8 -4
15 0 15 8 0 7 -4 11 -8 9 -9 -6 -20 21 -12 29 4 3 15 -1 25 -11 22 -20 24 -8
2 15 -15 15 -15 16 1 22 9 3 16 10 17 15 0 23 42 83 54 78 8 -3 11 -9 8 -14
-3 -5 -10 -7 -15 -4 -5 3 -6 -2 -3 -12 4 -13 3 -15 -4 -5 -7 11 -10 11 -15 -2
-4 -9 -3 -15 1 -14 13 2 42 -14 37 -21 -2 -4 3 -8 12 -8 13 0 11 4 -6 18 -20
16 -20 19 -5 34 15 15 15 17 -2 37 -19 21 -19 21 4 9 12 -6 22 -17 22 -23 0
-6 3 -8 6 -5 4 4 1 14 -7 24 -12 15 -12 16 4 10 11 -4 16 -3 12 4 -4 6 -13 8
-20 5 -19 -7 -27 5 -13 21 9 11 14 11 30 -4 14 -13 19 -14 16 -3 -2 10 6 14
29 13 18 0 30 3 28 7 -3 5 -14 6 -25 3 -15 -4 -19 -2 -15 10 4 8 -1 17 -10 21
-9 3 -18 0 -21 -9 -4 -8 -10 -15 -15 -15 -8 0 -3 11 18 49 2 2 9 -2 18 -9 9
-7 18 -10 22 -6 3 3 1 6 -6 6 -7 0 -10 4 -6 9 3 5 0 13 -6 17 -8 5 -9 3 -4 -6
5 -8 4 -11 -3 -6 -6 4 -8 13 -5 22 5 13 9 12 29 -7 13 -12 21 -27 17 -33 -3
-6 -2 -7 2 -3 11 9 16 39 7 33 -4 -2 -17 7 -30 20 -12 13 -20 25 -17 25 3 1
10 3 15 4 6 1 14 3 19 4 5 0 12 10 16 20 3 11 11 19 18 17 7 -1 9 -1 4 1 -4 3
-5 9 -1 14 3 5 0 9 -5 9 -6 0 -11 -5 -11 -11 0 -5 -5 -7 -11 -4 -7 5 -5 13 5
24 9 10 13 21 10 24 -4 4 -1 13 6 22 7 9 9 22 5 32 -5 10 -7 21 -7 26 2 7 -14
11 -31 8 -5 -1 -5 4 -1 10 11 18 13 89 2 95 -5 3 -4 11 2 19 6 7 7 16 2 19 -5
3 -8 21 -7 41 2 21 -2 35 -9 35 -7 0 -6 4 2 9 8 4 14 12 14 16 0 4 -6 12 -14
16 -10 7 -10 9 2 9 12 0 12 2 2 9 -11 7 -10 9 3 14 10 4 14 3 9 -4 -3 -6 5 -3
20 6 31 20 35 30 6 15 -13 -7 -20 -7 -20 -1 0 13 35 32 43 25 3 -3 3 4 0 17
-5 17 -3 20 7 14 9 -5 11 -4 6 4 -9 14 -26 5 -26 -15 0 -8 -4 -14 -10 -14 -5
0 -9 6 -7 13 1 6 -4 11 -11 9 -8 -1 -12 3 -9 10 2 7 11 12 21 10 17 -3 22 23
6 33 -6 4 -8 11 -5 16 4 5 -2 6 -12 2 -16 -6 -16 -5 -4 10 7 9 16 15 20 13 4
-3 7 4 7 15 0 18 -1 18 -18 -3 -16 -22 -17 -22 -17 -3 0 11 -2 27 -4 35 -20
65 -18 62 -33 43 -13 -17 -14 -17 -8 0 4 10 1 17 -7 17 -7 0 -9 3 -6 6 3 4 2
15 -4 25 -7 15 -6 17 5 13 9 -3 15 -9 14 -12 0 -4 0 -14 1 -22 1 -13 2 -13 11
0 5 9 5 19 -1 26 -12 14 18 34 39 27 6 -3 12 0 12 6 0 10 -31 8 -50 -4 -6 -3
-10 1 -10 10 0 10 5 13 13 9 7 -5 6 0 -3 11 -14 17 -13 18 5 12 14 -5 12 -1
-8 14 -15 11 -25 25 -22 29 3 5 -6 7 -20 4 -14 -2 -26 0 -26 6 -3 19 -5 25
-27 68 -12 23 -19 42 -15 42 5 0 3 4 -4 8 -6 4 -13 13 -15 20 -2 8 -15 27 -30
44 -16 17 -28 37 -28 45 0 8 -4 12 -9 9 -5 -3 -8 10 -6 28 1 24 -2 33 -11 29
-6 -2 -15 0 -19 6 -3 6 1 11 9 11 9 0 16 5 16 10 0 7 -6 7 -19 1 -10 -6 -20
-9 -23 -8 -2 1 6 -8 18 -19 13 -12 20 -24 17 -27 -7 -7 -47 33 -56 56 -3 9
-10 16 -14 15 -9 -3 -13 5 -13 25 0 7 7 4 15 -7 8 -11 25 -21 37 -23 16 -2 19
0 10 6 -8 4 -13 11 -13 15 3 20 0 26 -9 21 -5 -3 -10 1 -10 9 0 8 8 20 18 25
9 6 12 11 7 11 -6 0 -17 -6 -24 -12 -10 -11 -12 -9 -9 7 1 11 10 25 18 32 8 6
12 15 7 19 -4 4 -7 2 -7 -6 0 -9 -3 -10 -14 -1 -11 9 -13 6 -11 -14 2 -17 -2
-25 -11 -25 -10 0 -12 5 -8 13 5 8 2 7 -9 -2 -19 -15 -15 -26 11 -26 9 0 18
-8 20 -19 3 -11 0 -16 -7 -11 -6 3 -9 11 -6 16 4 5 1 9 -5 9 -6 0 -10 -7 -8
-16 2 -10 -3 -19 -11 -22 -10 -3 -11 2 -6 19 7 24 7 24 -10 4 -9 -11 -14 -15
-11 -8 4 6 0 14 -6 16 -7 3 -4 6 7 7 19 1 19 1 2 14 -14 11 -15 16 -5 22 7 5
18 9 23 10 6 0 17 2 25 3 13 1 13 2 0 11 -13 9 -13 10 0 11 8 1 18 1 23 0 4 0
7 4 7 9 0 12 50 59 63 60 5 0 6 -4 3 -8 -2 -4 0 -14 6 -22 8 -12 9 -11 4 4 -5
15 -2 17 14 13 11 -3 18 -1 14 4 -3 5 -12 9 -20 9 -21 0 -17 17 5 23 19 5 37
-16 32 -36 -1 -5 3 -6 9 -2 6 4 4 15 -6 30 -9 15 -11 25 -5 29 6 4 8 13 4 21
-3 9 1 15 11 15 9 0 16 5 16 11 0 5 -6 7 -12 4 -7 -4 -3 2 9 13 12 11 19 22
16 26 -4 3 1 6 10 6 9 0 19 5 23 12 5 8 2 9 -11 4 -18 -6 -18 -6 -2 12 9 10
15 21 12 24 -3 3 1 11 10 18 10 8 15 9 15 1 0 -6 5 -11 12 -11 6 0 3 9 -7 20
-12 13 -14 20 -5 20 7 0 10 7 6 16 -6 15 -4 15 10 3 16 -13 16 -12 7 6 -11 24
-11 34 4 60 6 11 9 28 8 38 -2 9 1 17 7 17 6 0 8 -7 5 -14 -4 -10 -1 -13 8
-10 8 3 11 13 8 22 -3 10 4 7 16 -8 l22 -25 -12 28 c-8 18 -18 26 -29 22 -14
-4 -16 3 -15 53 1 31 4 63 8 69 4 6 3 14 -3 18 -13 8 -13 25 1 25 5 0 8 -4 5
-8 -2 -4 4 -8 14 -8 10 0 16 4 14 8 -3 4 0 8 5 8 16 0 13 17 -4 23 -8 4 -17 1
-21 -5 -4 -7 -3 -8 4 -4 7 4 12 2 12 -3 0 -16 -16 -13 -31 6 -12 14 -12 16 0
9 9 -6 12 -5 9 5 -3 8 -11 13 -17 11 -18 -4 -13 15 7 23 16 6 16 7 -2 21 -12
8 -15 14 -7 14 10 0 11 3 2 14 -9 11 -6 21 15 45 14 17 22 31 17 31 -4 0 -3 4
2 8 13 9 65 114 65 130 0 7 5 10 12 6 7 -5 8 -3 4 5 -5 7 0 19 10 27 11 9 13
13 6 9 -10 -5 -10 -1 0 20 8 19 14 22 20 13 6 -9 7 -6 3 8 -6 24 18 128 27
118 4 -3 4 4 1 17 -4 12 -2 20 3 16 5 -3 10 7 10 21 1 15 10 64 21 110 14 63
22 80 31 72 9 -7 9 -7 2 2 -15 18 -13 61 3 52 9 -6 9 -5 0 7 -6 8 -11 43 -12
79 -1 88 -4 110 -14 110 -4 0 -5 6 0 13 11 18 12 36 3 42 -5 3 -7 -4 -5 -15 2
-11 0 -20 -4 -20 -5 0 -12 17 -16 38 -4 20 -12 43 -18 50 -8 10 -7 16 4 23 11
7 11 9 -3 9 -10 0 -18 5 -18 12 0 6 -8 20 -17 31 -13 15 -14 19 -3 13 13 -6
13 -5 0 6 -9 7 -14 22 -12 33 2 16 1 17 -7 5 -10 -14 -13 -8 -10 17 0 3 -7 11
-16 16 -14 8 -15 11 -4 18 11 7 10 9 -3 9 -10 0 -18 3 -18 8 0 4 -12 16 -27
26 -16 9 -20 15 -10 12 11 -3 16 -2 12 4 -3 6 -13 10 -21 10 -8 0 -34 18 -56
40 -23 22 -46 40 -51 40 -5 0 -6 12 -2 28 6 26 6 26 -9 7 l-15 -20 -15 20 c-8
11 -16 16 -16 12 0 -5 -7 -1 -16 8 -13 12 -14 19 -4 30 7 8 9 15 5 15 -4 0
-14 -8 -22 -17 -13 -16 -14 -16 -8 10 3 16 1 27 -5 27 -6 0 -8 -4 -5 -10 3 -5
1 -10 -5 -10 -6 0 -8 -5 -4 -12 5 -7 -9 0 -29 15 -20 15 -37 25 -37 21 0 -4
-8 0 -18 9 -10 10 -22 14 -27 10 -4 -5 -5 -2 -1 5 4 6 2 12 -3 12 -6 0 -11 -5
-11 -12 0 -6 -3 -8 -7 -4 -5 4 -1 13 8 19 16 12 19 18 19 38 0 5 4 8 9 4 5 -3
12 -1 16 4 6 11 -49 93 -57 85 -3 -3 -8 7 -12 21 -4 14 -14 25 -23 25 -9 0
-14 3 -10 6 3 4 -3 24 -14 46 -11 21 -18 42 -15 47 3 4 -1 8 -8 8 -8 0 -12 -6
-9 -14 3 -7 0 -13 -6 -13 -6 0 -11 9 -11 20 0 11 -5 20 -11 20 -6 0 -9 9 -6
20 3 11 1 18 -3 15 -11 -7 -83 103 -75 115 4 6 3 10 -2 9 -28 -5 -36 2 -18 15
18 13 18 14 -9 9 -20 -4 -27 -2 -22 6 4 6 2 11 -3 11 -6 0 -28 16 -48 35 -20
19 -33 35 -28 35 5 0 -6 8 -25 18 -80 43 -149 90 -142 97 4 5 1 5 -6 1 -17
-10 -82 15 -82 32 0 11 -3 12 -13 3 -8 -6 -17 -8 -21 -4 -4 4 -17 8 -30 10
-12 2 -47 10 -77 17 -30 8 -55 11 -57 6 -2 -5 -13 -5 -25 -1 -12 4 -28 6 -36
3 -8 -2 -11 -1 -9 4 3 5 1 18 -3 29 -9 18 -9 18 -5 -2z m810 -595 c-3 -4 5
-12 16 -18 11 -6 20 -15 20 -21 0 -5 16 -26 35 -46 33 -34 47 -62 25 -48 -5 3
-15 -3 -22 -15 -7 -11 -17 -20 -22 -20 -4 0 -3 7 4 15 15 18 0 20 -20 3 -11
-10 -11 -9 0 6 14 18 13 19 -2 13 -10 -3 -20 -1 -24 5 -4 6 -3 8 4 4 6 -3 13
-2 17 4 3 5 -2 10 -12 10 -14 0 -15 2 -5 9 11 7 10 9 -3 15 -9 3 -13 11 -10
16 4 6 1 17 -5 25 -6 8 -9 18 -6 24 4 5 -1 17 -10 25 -12 12 -12 16 -2 17 10
0 10 2 0 6 -6 2 -10 9 -6 14 3 5 0 9 -6 9 -6 0 -8 5 -4 11 4 8 14 -1 25 -22 9
-19 15 -37 13 -41z m44 -193 c-3 -3 -9 2 -12 12 -6 14 -5 15 5 6 7 -7 10 -15
7 -18z m-7746 -904 c-11 -6 -10 -10 4 -15 9 -3 14 -9 11 -13 -4 -3 -1 -13 6
-21 8 -11 8 -14 0 -9 -6 4 -13 1 -16 -5 -2 -8 -8 -9 -13 -4 -5 5 -4 11 4 13
10 4 10 9 -3 23 -17 19 -13 40 8 40 8 0 8 -3 -1 -9z m7938 -1226 c-7 -9 -15
-13 -19 -10 -3 3 1 10 9 15 21 14 24 12 10 -5z m-210 -175 c0 -5 -5 -10 -11
-10 -5 0 -7 5 -4 10 3 6 8 10 11 10 2 0 4 -4 4 -10z m120 -55 c0 -12 -19 -12
-23 0 -4 9 -1 12 9 8 7 -3 14 -7 14 -8z m236 -410 c-1 -8 -5 -18 -9 -21 -4 -4
-2 -13 5 -21 8 -11 7 -12 -6 -7 -19 7 -20 16 -4 32 9 9 8 12 -6 12 -13 0 -16
5 -11 21 5 16 4 19 -5 14 -9 -6 -11 -4 -6 4 10 16 45 -13 42 -34z m30 -158 c1
-7 3 -18 5 -26 2 -8 -4 -17 -13 -19 -12 -2 -18 2 -17 15 0 10 3 13 6 6 2 -7 9
-13 14 -13 6 0 5 8 -1 20 -6 11 -15 18 -21 15 -5 -4 -9 -2 -9 4 0 10 22 21 29
14 3 -2 6 -9 7 -16z m6 -66 c-9 -5 -5 -11 13 -19 14 -6 25 -16 25 -22 0 -6 -4
-9 -9 -6 -12 8 -34 -21 -26 -34 3 -6 10 -8 15 -5 9 6 7 -10 -5 -37 -11 -27
-20 -21 -23 15 -4 66 -8 92 -14 102 -4 6 3 12 15 12 14 2 17 -1 9 -6z m29
-473 c9 -17 8 -24 -5 -34 -12 -8 -14 -14 -6 -19 13 -8 -5 -35 -24 -35 -6 0 -4
5 4 10 13 9 13 10 0 10 -9 0 -11 3 -5 8 6 4 11 15 12 25 3 67 5 70 24 35z
m-16 -108 c4 -6 1 -18 -6 -26 -14 -17 -31 0 -22 23 6 16 19 17 28 3z m-46
-166 c-15 -18 -22 -13 -13 10 3 9 10 13 16 10 5 -3 4 -12 -3 -20z m-314 -354
c3 -5 -1 -10 -9 -10 -9 0 -16 5 -16 10 0 6 4 10 9 10 6 0 13 -4 16 -10z m-40
-20 c-3 -5 -10 -10 -16 -10 -5 0 -9 5 -9 10 0 6 7 10 16 10 8 0 12 -4 9 -10z
m-265 -128 c0 -5 -7 -9 -15 -9 -8 0 -12 4 -9 9 3 4 9 8 15 8 5 0 9 -4 9 -8z
m137 -29 c-4 -3 -1 -13 6 -22 11 -14 10 -14 -5 -2 -16 12 -16 31 -1 31 4 0 3
-3 0 -7z m43 -71 c0 -5 10 -13 22 -19 18 -8 19 -10 6 -16 -11 -4 -22 3 -32 19
-9 13 -12 24 -6 24 5 0 10 -4 10 -8z m-7088 -510 c-3 -9 -1 -13 5 -9 5 3 10
-1 10 -10 0 -13 -4 -12 -17 5 -10 12 -21 18 -25 14 -5 -4 -5 -2 -2 4 10 17 36
13 29 -4z m43 9 c3 -5 2 -12 -3 -15 -5 -3 -9 1 -9 9 0 17 3 19 12 6z m7305 -1
c0 -5 -4 -10 -10 -10 -5 0 -10 5 -10 10 0 6 5 10 10 10 6 0 10 -4 10 -10z
m-7536 -26 c5 -14 4 -15 -9 -4 -17 14 -19 20 -6 20 5 0 12 -7 15 -16z m81 -34
c3 -6 -1 -7 -9 -4 -18 7 -21 14 -7 14 6 0 13 -4 16 -10z m7270 -499 c3 -5 1
-12 -5 -16 -5 -3 -10 1 -10 9 0 18 6 21 15 7z m-210 -132 c-4 -5 0 -9 7 -10
10 0 10 -2 0 -6 -6 -2 -9 -10 -5 -16 3 -7 -4 -3 -16 8 l-23 19 -19 -24 c-10
-14 -19 -27 -19 -30 0 -3 -10 -6 -23 -8 -17 -1 -23 4 -24 19 -1 14 3 19 12 15
7 -2 16 -1 19 5 2 5 3 4 2 -3 -2 -7 -9 -12 -15 -10 -7 1 -10 -2 -6 -8 10 -16
48 8 41 26 -3 8 -2 13 2 10 4 -2 19 4 32 14 24 18 46 18 35 -1z m-185 -69 c0
-5 -6 -10 -12 -10 -9 0 -8 -4 2 -10 20 -13 4 -13 -21 1 -16 8 -25 7 -38 -5
-22 -20 -28 -20 -40 2 -8 15 -4 17 35 17 24 -1 44 3 44 7 0 4 7 8 15 8 8 0 15
-4 15 -10z m-402 -44 c-2 0 -15 -11 -29 -24 -17 -15 -29 -20 -34 -13 -3 6 5
15 19 21 14 5 26 14 26 20 0 6 5 8 11 5 6 -4 9 -8 7 -9z m-108 -30 c0 -11 -19
-15 -25 -6 -3 5 1 10 9 10 9 0 16 -2 16 -4z m-407 -24 c-2 -7 9 -9 27 -7 16 2
33 -2 36 -8 4 -7 4 -9 0 -5 -5 4 -19 2 -33 -3 -17 -6 -30 -6 -38 1 -6 5 -14 8
-16 5 -3 -2 -5 4 -5 14 0 11 6 18 16 16 8 -1 14 -7 13 -13z m-1133 -104 c0 6
7 12 15 12 8 0 15 -5 15 -11 0 -5 -6 -7 -12 -3 -10 6 -9 3 0 -8 12 -15 10 -16
-12 -14 -15 1 -26 6 -26 9 0 4 0 13 0 20 0 8 4 7 10 -3 6 -10 10 -11 10 -2z
m-370 -22 c0 -3 -4 -8 -10 -11 -5 -3 -10 -1 -10 4 0 6 5 11 10 11 6 0 10 -2
10 -4z m297 -12 c-21 -11 -31 -12 -45 -4 -16 11 -16 11 0 6 10 -3 19 -2 22 2
2 4 15 8 28 9 22 2 21 1 -5 -13z m-831 -58 c-1 -18 -4 -22 -13 -14 -15 12 -17
32 -3 23 6 -3 10 -1 10 4 0 6 2 11 4 11 2 0 3 -11 2 -24z m-766 -65 c0 -5 -7
-11 -14 -14 -10 -4 -13 -1 -9 9 6 15 23 19 23 5z m-200 -43 c0 -9 4 -8 11 2 9
12 10 12 7 1 -6 -21 -24 -25 -31 -6 -4 8 -2 15 3 15 6 0 10 -6 10 -12z m-370
-33 c0 -2 -7 -8 -15 -15 -12 -10 -15 -10 -15 2 0 8 7 15 15 15 8 0 15 -1 15
-2z m-464 -40 c-24 -18 -33 -19 -42 -3 -4 6 -3 8 2 5 6 -3 16 -2 24 4 24 14
37 10 16 -6z m-246 1 c0 -2 -7 -6 -15 -10 -8 -3 -15 -1 -15 4 0 6 7 10 15 10
8 0 15 -2 15 -4z m-506 -55 c5 0 6 -4 3 -8 -4 -3 -1 -13 6 -21 10 -13 9 -14
-11 -3 -12 6 -26 9 -31 6 -12 -7 -38 4 -44 19 -4 10 29 14 77 7z"/>
<path d="M8957 7828 c13 -14 13 -18 2 -18 -8 -1 -3 -7 11 -15 14 -7 24 -16 23
-19 -6 -14 -2 -24 12 -29 28 -11 24 10 -10 48 -18 22 -32 42 -30 46 2 3 -2 6
-10 6 -13 0 -12 -4 2 -19z m54 -65 c13 -16 12 -17 -3 -4 -10 7 -18 15 -18 17
0 8 8 3 21 -13z"/>
<path d="M9360 4660 c10 -6 11 -10 3 -10 -7 0 -13 -5 -13 -11 0 -8 5 -8 15 1
16 13 11 30 -8 30 -7 0 -6 -4 3 -10z"/>
<path d="M9363 4585 c0 -8 4 -12 9 -9 5 3 6 10 3 15 -9 13 -12 11 -12 -6z"/>
<path d="M8735 2151 c-3 -5 -2 -12 3 -15 5 -3 9 1 9 9 0 17 -3 19 -12 6z"/>
<path d="M8480 2060 c-9 -6 -10 -10 -3 -10 6 0 15 5 18 10 8 12 4 12 -15 0z"/>
<path d="M3025 1540 c-3 -6 1 -7 9 -4 18 7 21 14 7 14 -6 0 -13 -4 -16 -10z"/>
<path d="M8194 8474 c5 -12 2 -15 -9 -10 -10 3 -13 2 -10 -5 4 -5 12 -8 18 -6
13 4 18 37 5 37 -6 0 -7 -7 -4 -16z"/>
<path d="M7413 8465 c0 -8 4 -12 9 -9 5 3 6 10 3 15 -9 13 -12 11 -12 -6z"/>
<path d="M8073 8465 c0 -8 4 -15 9 -15 4 0 8 4 8 9 0 6 -4 12 -8 15 -5 3 -9
-1 -9 -9z"/>
<path d="M7680 8460 c-9 -6 -10 -10 -3 -10 6 0 15 5 18 10 8 12 4 12 -15 0z"/>
<path d="M7935 8460 c3 -5 8 -10 11 -10 2 0 4 5 4 10 0 6 -5 10 -11 10 -5 0
-7 -4 -4 -10z"/>
<path d="M8285 8460 c-3 -6 1 -7 9 -4 18 7 21 14 7 14 -6 0 -13 -4 -16 -10z"/>
<path d="M7740 8440 c0 -5 5 -10 11 -10 5 0 7 5 4 10 -3 6 -8 10 -11 10 -2 0
-4 -4 -4 -10z"/>
<path d="M7696 8423 c-6 -14 -5 -15 5 -6 7 7 10 15 7 18 -3 3 -9 -2 -12 -12z"/>
<path d="M7316 8422 c-2 -4 2 -16 10 -27 8 -10 14 -14 14 -8 0 7 -5 15 -10 18
-6 4 -8 11 -5 16 4 5 4 9 1 9 -3 0 -7 -3 -10 -8z"/>
<path d="M7235 8411 c-3 -5 -2 -12 3 -15 5 -3 9 1 9 9 0 17 -3 19 -12 6z"/>
<path d="M6915 8400 c3 -5 8 -10 11 -10 2 0 4 5 4 10 0 6 -5 10 -11 10 -5 0
-7 -4 -4 -10z"/>
<path d="M7115 8400 c-3 -5 -1 -10 4 -10 6 0 11 5 11 10 0 6 -2 10 -4 10 -3 0
-8 -4 -11 -10z"/>
<path d="M7145 8400 c-3 -6 1 -7 9 -4 18 7 21 14 7 14 -6 0 -13 -4 -16 -10z"/>
<path d="M7450 8400 c0 -5 5 -10 10 -10 6 0 10 5 10 10 0 6 -4 10 -10 10 -5 0
-10 -4 -10 -10z"/>
<path d="M8445 8400 c-3 -6 1 -7 9 -4 18 7 21 14 7 14 -6 0 -13 -4 -16 -10z"/>
<path d="M7280 8396 c0 -2 7 -7 16 -10 8 -3 12 -2 9 4 -6 10 -25 14 -25 6z"/>
<path d="M6775 8381 c-3 -5 -2 -12 3 -15 5 -3 9 1 9 9 0 17 -3 19 -12 6z"/>
<path d="M7025 8380 c-3 -6 1 -7 9 -4 18 7 21 14 7 14 -6 0 -13 -4 -16 -10z"/>
<path d="M7190 8380 c0 -5 5 -10 10 -10 6 0 10 5 10 10 0 6 -4 10 -10 10 -5 0
-10 -4 -10 -10z"/>
<path d="M6855 8371 c-3 -6 -15 -8 -27 -6 -11 3 -18 1 -14 -2 12 -13 35 -11
47 3 6 8 9 14 6 14 -3 0 -8 -4 -12 -9z"/>
<path d="M7044 8364 c-18 -14 -18 -15 4 -4 12 6 22 13 22 15 0 8 -5 6 -26 -11z"/>
<path d="M8520 8366 c7 -7 13 -7 20 0 6 6 3 10 -10 10 -13 0 -16 -4 -10 -10z"/>
<path d="M6486 8358 c3 -5 10 -6 15 -3 13 9 11 12 -6 12 -8 0 -12 -4 -9 -9z"/>
<path d="M6566 8362 c-3 -5 1 -9 9 -9 8 0 12 4 9 9 -3 4 -7 8 -9 8 -2 0 -6 -4
-9 -8z"/>
<path d="M6700 8366 c0 -2 8 -10 18 -17 15 -13 16 -12 3 4 -13 16 -21 21 -21
13z"/>
<path d="M6925 8360 c-3 -5 -2 -10 4 -10 5 0 13 5 16 10 3 6 2 10 -4 10 -5 0
-13 -4 -16 -10z"/>
<path d="M8555 8360 c-3 -5 -1 -10 4 -10 6 0 11 5 11 10 0 6 -2 10 -4 10 -3 0
-8 -4 -11 -10z"/>
<path d="M6196 8338 c3 -5 10 -6 15 -3 13 9 11 12 -6 12 -8 0 -12 -4 -9 -9z"/>
<path d="M6770 8340 c-9 -6 -10 -10 -3 -10 6 0 15 5 18 10 8 12 4 12 -15 0z"/>
<path d="M6554 8328 c10 -6 22 -6 26 -2 5 5 -3 10 -18 11 -22 1 -24 0 -8 -9z"/>
<path d="M6410 8318 c0 -4 11 -6 24 -4 14 2 27 0 30 -5 2 -5 3 -4 2 3 -3 14
-56 20 -56 6z"/>
<path d="M6497 8317 c-3 -7 3 -13 14 -13 13 0 15 3 7 13 -6 7 -12 13 -13 13
-2 0 -5 -6 -8 -13z"/>
<path d="M8580 8326 c0 -2 7 -6 15 -10 8 -3 15 -1 15 4 0 6 -7 10 -15 10 -8 0
-15 -2 -15 -4z"/>
<path d="M8666 8322 c-3 -5 1 -9 9 -9 8 0 12 4 9 9 -3 4 -7 8 -9 8 -2 0 -6 -4
-9 -8z"/>
<path d="M6237 8313 c-10 -9 -9 -23 1 -23 5 0 9 7 9 15 0 17 -1 18 -10 8z"/>
<path d="M6375 8311 c-3 -5 -2 -12 3 -15 5 -3 9 1 9 9 0 17 -3 19 -12 6z"/>
<path d="M6165 8299 c-4 -6 -5 -12 -2 -15 2 -3 7 2 10 11 7 17 1 20 -8 4z"/>
<path d="M6274 8302 c3 -5 0 -13 -6 -15 -9 -4 -10 -6 -1 -6 17 -1 25 16 12 25
-7 4 -9 3 -5 -4z"/>
<path d="M8632 8295 c15 -16 20 -17 30 -6 11 11 10 13 0 7 -7 -4 -21 -2 -30 5
-15 12 -15 11 0 -6z"/>
<path d="M5790 8286 c0 -2 7 -7 16 -10 8 -3 12 -2 9 4 -6 10 -25 14 -25 6z"/>
<path d="M5830 8281 c0 -6 4 -12 8 -15 5 -3 9 1 9 9 0 8 -4 15 -9 15 -4 0 -8
-4 -8 -9z"/>
<path d="M5877 8275 c-4 -8 -3 -16 1 -19 4 -3 9 4 9 15 2 23 -3 25 -10 4z"/>
<path d="M5906 8282 c-3 -5 1 -9 9 -9 8 0 12 4 9 9 -3 4 -7 8 -9 8 -2 0 -6 -4
-9 -8z"/>
<path d="M5969 8277 c6 -8 7 -18 3 -22 -4 -5 -1 -5 6 -1 10 6 10 11 1 22 -6 8
-14 14 -16 14 -3 0 0 -6 6 -13z"/>
<path d="M6090 8280 c0 -5 5 -10 10 -10 6 0 10 5 10 10 0 6 -4 10 -10 10 -5 0
-10 -4 -10 -10z"/>
<path d="M6125 8280 c-3 -6 1 -7 9 -4 18 7 21 14 7 14 -6 0 -13 -4 -16 -10z"/>
<path d="M5674 8265 c1 -8 8 -21 16 -28 12 -10 12 -9 2 4 -6 9 -9 18 -6 21 3
3 1 9 -4 12 -6 3 -9 -1 -8 -9z"/>
<path d="M5550 8266 c0 -2 7 -7 16 -10 8 -3 12 -2 9 4 -6 10 -25 14 -25 6z"/>
<path d="M5596 8262 c-3 -5 1 -9 9 -9 8 0 12 4 9 9 -3 4 -7 8 -9 8 -2 0 -6 -4
-9 -8z"/>
<path d="M5765 8259 c-4 -6 -5 -12 -2 -15 2 -3 7 2 10 11 7 17 1 20 -8 4z"/>
<path d="M8700 8241 c0 -11 4 -22 9 -25 4 -3 6 6 3 19 -5 30 -12 33 -12 6z"/>
<path d="M5313 8233 c0 -11 7 -20 14 -20 10 0 10 4 1 16 -7 9 -13 18 -15 20
-1 2 -1 -5 0 -16z"/>
<path d="M5389 8237 c6 -8 7 -18 3 -22 -4 -5 -1 -5 6 -1 10 6 10 11 1 22 -6 8
-14 14 -16 14 -3 0 0 -6 6 -13z"/>
<path d="M5536 8238 c3 -5 10 -6 15 -3 13 9 11 12 -6 12 -8 0 -12 -4 -9 -9z"/>
<path d="M5730 8240 c0 -5 5 -10 10 -10 6 0 10 5 10 10 0 6 -4 10 -10 10 -5 0
-10 -4 -10 -10z"/>
<path d="M8731 8234 c0 -11 3 -14 6 -6 3 7 2 16 -1 19 -3 4 -6 -2 -5 -13z"/>
<path d="M8790 8240 c0 -5 5 -10 11 -10 5 0 7 5 4 10 -3 6 -8 10 -11 10 -2 0
-4 -4 -4 -10z"/>
<path d="M4853 8225 c0 -8 4 -12 9 -9 5 3 6 10 3 15 -9 13 -12 11 -12 -6z"/>
<path d="M4930 8219 c0 -5 5 -7 10 -4 6 3 10 8 10 11 0 2 -4 4 -10 4 -5 0 -10
-5 -10 -11z"/>
<path d="M5260 8220 c8 -5 22 -9 30 -9 10 0 8 3 -5 9 -27 12 -43 12 -25 0z"/>
<path d="M5445 8219 c-4 -6 -5 -12 -2 -15 2 -3 7 2 10 11 7 17 1 20 -8 4z"/>
<path d="M5475 8220 c3 -5 8 -10 11 -10 2 0 4 5 4 10 0 6 -5 10 -11 10 -5 0
-7 -4 -4 -10z"/>
<path d="M5220 8213 c0 -19 21 -27 33 -13 9 10 9 11 -2 5 -8 -4 -17 -2 -22 6
-6 9 -9 10 -9 2z"/>
<path d="M5355 8209 c-11 -16 -1 -19 13 -3 7 8 8 14 3 14 -5 0 -13 -5 -16 -11z"/>
<path d="M4969 8197 c6 -8 7 -18 3 -22 -4 -5 -1 -5 6 -1 10 6 10 11 1 22 -6 8
-14 14 -16 14 -3 0 0 -6 6 -13z"/>
<path d="M5055 8200 c-3 -5 -3 -10 2 -10 4 0 1 -5 -7 -11 -12 -8 -12 -10 -1
-7 8 2 15 12 17 21 3 19 -2 22 -11 7z"/>
<path d="M5116 8202 c-2 -4 -1 -14 4 -22 7 -11 9 -9 7 8 -1 24 -3 26 -11 14z"/>
<path d="M8790 8201 c0 -6 4 -13 10 -16 6 -3 7 1 4 9 -7 18 -14 21 -14 7z"/>
<path d="M4455 8191 c-3 -5 -2 -12 3 -15 5 -3 9 1 9 9 0 17 -3 19 -12 6z"/>
<path d="M4659 8188 c-5 -18 -6 -38 -1 -34 7 8 12 36 6 36 -2 0 -4 -1 -5 -2z"/>
<path d="M4803 8178 c-14 -23 -12 -37 5 -30 11 4 12 7 4 10 -10 3 -10 7 -1 18
6 8 9 14 6 14 -3 0 -9 -6 -14 -12z"/>
<path d="M4871 8174 c7 -8 6 -14 -1 -17 -6 -3 -6 -5 1 -3 17 3 20 33 3 33 -10
0 -11 -4 -3 -13z"/>
<path d="M4910 8174 c6 -6 7 -14 3 -17 -3 -4 -3 -7 0 -7 3 0 11 8 16 18 7 14
6 18 -9 18 -13 0 -16 -4 -10 -12z"/>
<path d="M4510 8176 c0 -2 8 -10 18 -17 15 -13 16 -12 3 4 -13 16 -21 21 -21
13z"/>
<path d="M4835 8170 c3 -5 8 -10 11 -10 2 0 4 5 4 10 0 6 -5 10 -11 10 -5 0
-7 -4 -4 -10z"/>
<path d="M4604 8155 c-18 -15 -18 -15 0 -8 15 5 17 3 11 -8 -5 -8 -4 -11 0 -6
8 7 17 37 11 37 -1 0 -11 -7 -22 -15z"/>
<path d="M8821 8156 c-8 -10 -9 -16 -1 -21 6 -4 9 -1 8 7 -2 7 5 12 14 12 10
-1 15 2 12 7 -8 13 -20 11 -33 -5z"/>
<path d="M4036 8142 c-3 -4 4 -9 15 -9 23 -2 25 3 4 10 -8 4 -16 3 -19 -1z"/>
<path d="M4213 8143 c4 -3 1 -13 -6 -22 -11 -14 -10 -14 5 -2 16 12 16 31 1
31 -4 0 -3 -3 0 -7z"/>
<path d="M4425 8140 c-3 -6 1 -7 9 -4 18 7 21 14 7 14 -6 0 -13 -4 -16 -10z"/>
<path d="M4556 8141 c-17 -6 -17 -8 -4 -14 10 -3 19 0 22 9 3 8 4 14 3 13 -1
0 -11 -4 -21 -8z"/>
<path d="M4670 8140 c0 -5 7 -7 15 -4 8 4 15 8 15 10 0 2 -7 4 -15 4 -8 0 -15
-4 -15 -10z"/>
<path d="M4266 8118 c10 -14 21 -24 23 -22 3 3 -6 15 -18 27 l-24 22 19 -27z"/>
<path d="M4364 8124 c9 -6 13 -14 9 -18 -4 -4 1 -4 12 0 11 5 14 9 7 12 -7 2
-10 7 -8 11 3 4 -4 7 -15 7 -18 0 -18 -2 -5 -12z"/>
<path d="M4455 8131 c-6 -11 13 -26 22 -17 4 3 1 6 -6 6 -7 0 -9 5 -6 10 3 6
4 10 1 10 -3 0 -7 -4 -11 -9z"/>
<path d="M4490 8125 c0 -7 30 -13 34 -7 3 4 -4 9 -15 9 -10 1 -19 0 -19 -2z"/>
<path d="M8853 8115 c0 -8 4 -12 9 -9 5 3 6 10 3 15 -9 13 -12 11 -12 -6z"/>
<path d="M4148 8113 c7 -3 16 -2 19 1 4 3 -2 6 -13 5 -11 0 -14 -3 -6 -6z"/>
<path d="M3730 8100 c0 -5 5 -10 11 -10 5 0 7 5 4 10 -3 6 -8 10 -11 10 -2 0
-4 -4 -4 -10z"/>
<path d="M3925 8100 c-3 -6 1 -7 9 -4 18 7 21 14 7 14 -6 0 -13 -4 -16 -10z"/>
<path d="M4235 8100 c3 -5 8 -10 11 -10 2 0 4 5 4 10 0 6 -5 10 -11 10 -5 0
-7 -4 -4 -10z"/>
<path d="M4051 8084 c0 -11 3 -14 6 -6 3 7 2 16 -1 19 -3 4 -6 -2 -5 -13z"/>
<path d="M3510 8082 c0 -5 7 -9 15 -9 8 0 12 4 9 9 -3 4 -9 8 -15 8 -5 0 -9
-4 -9 -8z"/>
<path d="M3584 8078 c-4 -7 -3 -8 5 -4 6 4 20 2 29 -6 15 -12 16 -11 3 5 -16
20 -27 22 -37 5z"/>
<path d="M3659 8073 c-12 -16 -12 -17 2 -6 9 7 20 9 24 5 5 -4 5 -1 1 6 -9 16
-11 15 -27 -5z"/>
<path d="M3773 8075 c0 -7 7 -11 15 -7 10 3 13 1 8 -6 -5 -8 -2 -10 9 -6 18 7
18 7 -11 22 -16 8 -21 8 -21 -3z"/>
<path d="M8844 8082 c-8 -5 -5 -13 9 -27 20 -20 20 -20 8 2 -8 16 -8 23 2 26
6 3 8 6 2 6 -5 0 -15 -3 -21 -7z"/>
<path d="M8875 8071 c-3 -5 -2 -12 3 -15 5 -3 9 1 9 9 0 17 -3 19 -12 6z"/>
<path d="M3295 8060 c-3 -5 -1 -10 4 -10 6 0 11 5 11 10 0 6 -2 10 -4 10 -3 0
-8 -4 -11 -10z"/>
<path d="M3330 8060 c0 -5 5 -10 11 -10 5 0 7 5 4 10 -3 6 -8 10 -11 10 -2 0
-4 -4 -4 -10z"/>
<path d="M3855 8060 c3 -5 8 -10 11 -10 2 0 4 5 4 10 0 6 -5 10 -11 10 -5 0
-7 -4 -4 -10z"/>
<path d="M3513 8045 c-3 -9 -3 -18 -1 -21 3 -3 8 4 11 16 6 23 -1 27 -10 5z"/>
<path d="M3575 8051 c-6 -11 13 -26 22 -17 4 3 1 6 -6 6 -7 0 -9 5 -6 10 3 6
4 10 1 10 -3 0 -7 -4 -11 -9z"/>
<path d="M8906 8041 c-12 -13 -14 -21 -6 -26 6 -4 9 -1 8 7 -2 7 2 12 8 11 6
-1 11 5 11 13 0 18 0 18 -21 -5z"/>
<path d="M3020 8040 c-9 -6 -10 -10 -3 -10 6 0 15 5 18 10 8 12 4 12 -15 0z"/>
<path d="M3130 8041 c0 -6 4 -13 10 -16 6 -3 7 1 4 9 -7 18 -14 21 -14 7z"/>
<path d="M3235 8041 c-3 -5 -2 -12 3 -15 5 -3 9 1 9 9 0 17 -3 19 -12 6z"/>
<path d="M3399 8033 c-13 -17 -13 -17 5 -3 18 14 19 13 12 -5 -6 -16 -5 -18 5
-7 9 8 10 15 3 22 -8 8 -15 5 -25 -7z"/>
<path d="M3448 8032 c4 -10 7 -12 10 -4 2 7 9 9 15 5 7 -3 8 -2 4 2 -14 16
-36 14 -29 -3z"/>
<path d="M3356 8023 c-6 -14 -5 -15 5 -6 7 7 10 15 7 18 -3 3 -9 -2 -12 -12z"/>
<path d="M3195 8023 c3 -3 0 -11 -5 -18 -7 -8 -5 -12 4 -12 14 0 16 22 3 32
-4 3 -5 2 -2 -2z"/>
<path d="M2829 8003 c-13 -16 -12 -17 4 -4 16 13 21 21 13 21 -2 0 -10 -8 -17
-17z"/>
<path d="M3055 8010 c-4 -6 -11 -7 -17 -4 -6 4 -8 2 -4 -4 3 -5 0 -13 -6 -15
-8 -3 -6 -6 5 -6 9 -1 17 4 17 10 0 5 4 8 8 5 5 -3 9 1 9 9 0 18 -3 19 -12 5z"/>
<path d="M2723 7998 c-10 -17 -12 -59 -2 -53 4 3 6 13 4 23 -1 9 2 23 8 30 5
6 7 12 4 12 -3 0 -9 -6 -14 -12z"/>
<path d="M2919 7993 c-13 -17 -13 -17 5 -3 18 14 19 13 12 -5 -6 -16 -5 -18 5
-7 9 8 10 15 3 22 -8 8 -15 5 -25 -7z"/>
<path d="M3140 8006 c0 -2 8 -10 18 -17 15 -13 16 -12 3 4 -13 16 -21 21 -21
13z"/>
<path d="M3278 8003 c7 -3 16 -2 19 1 4 3 -2 6 -13 5 -11 0 -14 -3 -6 -6z"/>
<path d="M8910 8000 c-8 -5 0 -7 18 -7 17 1 29 4 26 6 -8 9 -31 9 -44 1z"/>
<path d="M2635 7981 c-3 -5 -2 -12 3 -15 5 -3 9 1 9 9 0 17 -3 19 -12 6z"/>
<path d="M2788 7978 c5 -5 16 -8 23 -6 8 3 3 7 -10 11 -17 4 -21 3 -13 -5z"/>
<path d="M2877 7973 c3 -7 6 -13 8 -13 2 0 5 6 8 13 3 8 -1 14 -8 14 -7 0 -11
-6 -8 -14z"/>
<path d="M2109 7963 c-13 -16 -12 -17 4 -4 16 13 21 21 13 21 -2 0 -10 -8 -17
-17z"/>
<path d="M2464 7958 c-10 -13 -12 -18 -5 -11 16 13 44 6 34 -10 -4 -6 -1 -7 7
-2 10 6 10 11 -3 20 -9 7 -14 15 -10 18 3 4 4 7 1 7 -3 0 -13 -10 -24 -22z"/>
<path d="M8949 7963 c-13 -16 -12 -17 4 -4 9 7 17 15 17 17 0 8 -8 3 -21 -13z"/>
<path d="M1790 7960 c0 -5 5 -10 11 -10 5 0 7 5 4 10 -3 6 -8 10 -11 10 -2 0
-4 -4 -4 -10z"/>
<path d="M2286 7958 c3 -5 10 -6 15 -3 13 9 11 12 -6 12 -8 0 -12 -4 -9 -9z"/>
<path d="M2316 7953 c-6 -14 -5 -15 5 -6 7 7 10 15 7 18 -3 3 -9 -2 -12 -12z"/>
<path d="M2350 7960 c0 -5 5 -10 11 -10 5 0 7 5 4 10 -3 6 -8 10 -11 10 -2 0
-4 -4 -4 -10z"/>
<path d="M2400 7966 c0 -2 8 -10 18 -17 15 -13 16 -12 3 4 -13 16 -21 21 -21
13z"/>
<path d="M1980 7940 c-9 -6 -10 -10 -3 -10 6 0 15 5 18 10 8 12 4 12 -15 0z"/>
<path d="M2550 7940 c0 -5 7 -7 15 -4 8 4 15 8 15 10 0 2 -7 4 -15 4 -8 0 -15
-4 -15 -10z"/>
<path d="M8955 7941 c-3 -6 5 -15 17 -21 21 -10 21 -10 6 3 -10 8 -15 17 -11
20 3 4 4 7 0 7 -3 0 -8 -4 -12 -9z"/>
<path d="M2085 7920 c-18 -8 -18 -9 -2 -9 12 -1 16 -6 11 -13 -4 -7 -3 -9 1
-5 7 6 17 39 12 36 -1 0 -11 -4 -22 -9z"/>
<path d="M2186 7918 c3 -5 10 -6 15 -3 13 9 11 12 -6 12 -8 0 -12 -4 -9 -9z"/>
<path d="M2150 7900 c0 -5 7 -7 15 -4 8 4 15 8 15 10 0 2 -7 4 -15 4 -8 0 -15
-4 -15 -10z"/>
<path d="M1875 7890 c-4 -6 -10 -8 -15 -5 -5 3 -11 1 -14 -4 -8 -13 22 -7 36
7 7 7 9 12 6 12 -4 0 -10 -5 -13 -10z"/>
<path d="M1793 7874 c0 -9 4 -11 12 -4 7 5 14 9 16 7 2 -1 3 0 1 2 -7 11 -29
7 -29 -5z"/>
<path d="M8971 7887 c2 -1 13 -9 24 -17 19 -14 19 -14 6 3 -7 9 -18 17 -24 17
-6 0 -8 -1 -6 -3z"/>
<path d="M1690 7860 c0 -5 5 -10 11 -10 5 0 7 5 4 10 -3 6 -8 10 -11 10 -2 0
-4 -4 -4 -10z"/>
<path d="M1739 7848 c15 -20 36 -23 46 -9 3 5 0 13 -6 17 -8 4 -9 3 -5 -4 10
-16 -16 -15 -34 1 -12 10 -12 9 -1 -5z"/>
<path d="M1639 7833 c-13 -16 -12 -17 4 -4 9 7 17 15 17 17 0 8 -8 3 -21 -13z"/>
<path d="M1714 7832 c3 -5 0 -13 -6 -15 -9 -4 -10 -6 -1 -6 17 -1 25 16 12 25
-7 4 -9 3 -5 -4z"/>
<path d="M9050 7820 c0 -5 5 -10 11 -10 5 0 7 5 4 10 -3 6 -8 10 -11 10 -2 0
-4 -4 -4 -10z"/>
<path d="M1616 7802 c-3 -5 1 -9 9 -9 8 0 12 4 9 9 -3 4 -7 8 -9 8 -2 0 -6 -4
-9 -8z"/>
<path d="M9055 7791 c-3 -5 -2 -12 3 -15 5 -3 9 1 9 9 0 17 -3 19 -12 6z"/>
<path d="M1555 7780 c-3 -5 -1 -10 4 -10 6 0 11 5 11 10 0 6 -2 10 -4 10 -3 0
-8 -4 -11 -10z"/>
<path d="M1473 7755 c0 -8 4 -12 9 -9 5 3 6 10 3 15 -9 13 -12 11 -12 -6z"/>
<path d="M9070 7740 c-12 -17 -25 -28 -30 -25 -13 8 -6 -21 9 -39 8 -9 16 -14
19 -11 3 3 13 -2 22 -10 15 -14 18 -14 23 -1 4 10 1 13 -9 9 -10 -4 -12 0 -8
11 3 9 1 16 -6 16 -6 0 -8 5 -5 10 4 6 9 8 13 6 4 -2 8 7 9 21 1 24 0 24 -18
-6 -11 -18 -24 -29 -30 -25 -6 3 -7 9 -2 13 11 8 45 61 39 61 -3 0 -14 -14
-26 -30z m2 -55 c3 0 9 -3 13 -7 4 -3 0 -5 -9 -4 -9 1 -22 8 -29 16 -10 10 -9
11 3 4 8 -5 18 -9 22 -9z"/>
<path d="M1515 7729 c-4 -6 -5 -12 -2 -15 2 -3 7 2 10 11 7 17 1 20 -8 4z"/>
<path d="M9135 7679 c-4 -6 -5 -12 -2 -15 2 -3 7 2 10 11 7 17 1 20 -8 4z"/>
<path d="M9187 7679 c7 -7 15 -10 18 -7 3 3 -2 9 -12 12 -14 6 -15 5 -6 -5z"/>
<path d="M9226 7642 c-3 -5 1 -9 9 -9 8 0 12 4 9 9 -3 4 -7 8 -9 8 -2 0 -6 -4
-9 -8z"/>
<path d="M1416 7623 c-6 -14 -5 -15 5 -6 7 7 10 15 7 18 -3 3 -9 -2 -12 -12z"/>
<path d="M9190 7600 c0 -6 7 -10 15 -10 8 0 15 2 15 4 0 2 -7 6 -15 10 -8 3
-15 1 -15 -4z"/>
<path d="M9274 7586 c1 -8 5 -18 8 -22 4 -3 5 1 4 10 -1 8 -5 18 -8 22 -4 3
-5 -1 -4 -10z"/>
<path d="M1335 7580 c-3 -5 -1 -10 4 -10 6 0 11 5 11 10 0 6 -2 10 -4 10 -3 0
-8 -4 -11 -10z"/>
<path d="M9321 7556 c-9 -11 -9 -16 1 -22 7 -4 10 -4 6 1 -4 4 -3 14 3 22 6 7
9 13 6 13 -2 0 -10 -6 -16 -14z"/>
<path d="M9260 7546 c0 -2 8 -10 18 -17 15 -13 16 -12 3 4 -13 16 -21 21 -21
13z"/>
<path d="M9316 7501 c-3 -5 1 -14 9 -21 10 -9 15 -9 15 -1 0 6 -5 11 -11 11
-5 0 -7 5 -4 10 3 6 4 10 1 10 -3 0 -7 -4 -10 -9z"/>
<path d="M9406 7478 c3 -5 10 -6 15 -3 13 9 11 12 -6 12 -8 0 -12 -4 -9 -9z"/>
<path d="M1256 7458 c3 -4 11 -5 19 -1 21 7 19 12 -4 10 -11 0 -18 -5 -15 -9z"/>
<path d="M9390 7460 c0 -5 5 -10 11 -10 5 0 7 5 4 10 -3 6 -8 10 -11 10 -2 0
-4 -4 -4 -10z"/>
<path d="M9470 7456 c0 -2 8 -10 18 -17 15 -13 16 -12 3 4 -13 16 -21 21 -21
13z"/>
<path d="M1270 7399 c0 -5 5 -7 10 -4 6 3 10 8 10 11 0 2 -4 4 -10 4 -5 0 -10
-5 -10 -11z"/>
<path d="M9470 7401 c0 -6 4 -13 10 -16 6 -3 7 1 4 9 -7 18 -14 21 -14 7z"/>
<path d="M9495 7341 c-3 -5 -2 -12 3 -15 5 -3 9 1 9 9 0 17 -3 19 -12 6z"/>
<path d="M9509 7277 c6 -8 7 -18 3 -22 -4 -5 -1 -5 6 -1 10 6 10 11 1 22 -6 8
-14 14 -16 14 -3 0 0 -6 6 -13z"/>
<path d="M1196 7235 c-3 -9 -11 -13 -17 -9 -8 5 -9 3 -4 -5 6 -10 11 -9 23 3
9 8 13 18 10 21 -3 3 -8 -1 -12 -10z"/>
<path d="M1150 7066 c0 -2 7 -7 16 -10 8 -3 12 -2 9 4 -6 10 -25 14 -25 6z"/>
<path d="M1105 7000 c-3 -6 1 -7 9 -4 18 7 21 14 7 14 -6 0 -13 -4 -16 -10z"/>
<path d="M1177 6999 c7 -7 15 -10 18 -7 3 3 -2 9 -12 12 -14 6 -15 5 -6 -5z"/>
<path d="M1193 6895 c0 -8 4 -15 9 -15 4 0 8 4 8 9 0 6 -4 12 -8 15 -5 3 -9
-1 -9 -9z"/>
<path d="M1210 6830 c6 -11 12 -20 14 -20 2 0 2 9 -1 20 -3 11 -9 20 -15 20
-5 0 -4 -9 2 -20z"/>
<path d="M1195 6800 c-3 -5 -1 -10 4 -10 6 0 11 5 11 10 0 6 -2 10 -4 10 -3 0
-8 -4 -11 -10z"/>
<path d="M1150 6786 c0 -2 7 -7 16 -10 8 -3 12 -2 9 4 -6 10 -25 14 -25 6z"/>
<path d="M1196 6735 c-3 -9 -10 -14 -15 -10 -5 3 -12 1 -15 -4 -8 -13 22 -7
36 7 6 6 9 14 6 17 -3 3 -8 -1 -12 -10z"/>
<path d="M1175 6689 c-4 -6 -5 -12 -2 -15 2 -3 7 2 10 11 7 17 1 20 -8 4z"/>
<path d="M1245 6692 c-5 -4 -17 -16 -25 -26 -11 -15 -12 -18 -1 -12 9 6 12 5
9 -5 -3 -8 -11 -13 -17 -11 -9 2 -9 -3 -1 -18 10 -19 12 -19 42 -4 27 14 30
18 17 28 -9 6 -15 21 -14 34 1 12 1 22 1 22 -1 0 -5 -4 -11 -8z m9 -63 c-3 -5
-10 -7 -15 -4 -5 4 -9 1 -9 -6 0 -7 -3 -9 -6 -6 -9 9 16 38 27 31 5 -3 7 -10
3 -15z"/>
<path d="M1156 6642 c-3 -4 4 -9 15 -9 23 -2 25 3 4 10 -8 4 -16 3 -19 -1z"/>
<path d="M1110 6616 c0 -2 8 -10 18 -17 15 -13 16 -12 3 4 -13 16 -21 21 -21
13z"/>
<path d="M1191 6604 c0 -11 3 -14 6 -6 3 7 2 16 -1 19 -3 4 -6 -2 -5 -13z"/>
<path d="M293 6479 c-164 -30 -294 -188 -288 -349 6 -142 82 -261 205 -319 47
-22 68 -26 150 -26 83 0 102 4 150 27 214 105 268 383 108 560 -79 87 -207
129 -325 107z"/>
<path d="M9406 6323 c-6 -14 -5 -15 5 -6 7 7 10 15 7 18 -3 3 -9 -2 -12 -12z"/>
<path d="M9385 6269 c-9 -16 -25 -39 -36 -50 -15 -15 -17 -24 -10 -33 6 -7 8
-16 5 -19 -4 -3 5 -12 19 -18 15 -7 24 -16 21 -21 -3 -5 -12 -4 -19 2 -8 7
-15 7 -19 1 -4 -5 -2 -12 4 -16 5 -3 10 -4 10 0 0 3 8 1 18 -4 15 -8 18 -6 17
10 -1 11 -8 24 -15 29 -8 5 -11 12 -8 15 4 4 13 3 20 -1 19 -12 37 -14 43 -4
3 5 -3 7 -13 5 -10 -2 -28 5 -41 14 l-23 18 22 44 c13 24 28 47 34 51 8 6 7 8
-1 8 -7 0 -20 -14 -28 -31z m-26 -83 c9 -11 9 -16 -1 -22 -7 -4 -10 -4 -6 1 4
4 3 14 -3 22 -6 7 -9 13 -6 13 2 0 10 -6 16 -14z"/>
<path d="M9396 6238 c-19 -37 -20 -48 -5 -48 5 0 7 5 4 10 -4 6 -3 16 3 23 11
14 23 47 17 47 -2 0 -11 -14 -19 -32z"/>
<path d="M9405 6080 c3 -5 8 -10 11 -10 2 0 4 5 4 10 0 6 -5 10 -11 10 -5 0
-7 -4 -4 -10z"/>
<path d="M9353 6035 c0 -8 5 -11 10 -8 5 3 7 0 5 -8 -3 -8 -10 -13 -15 -12
-18 3 -8 -68 11 -79 15 -9 16 -7 8 9 -5 10 -7 24 -5 31 3 6 0 12 -6 12 -6 0
-3 9 6 20 15 18 19 18 34 4 12 -10 19 -12 24 -4 4 6 1 9 -7 8 -7 -2 -12 4 -10
12 2 8 0 12 -4 7 -4 -4 -17 -1 -29 7 -18 12 -22 12 -22 1z"/>
<path d="M9338 5835 c-6 -13 -14 -22 -18 -20 -4 2 -7 -2 -7 -10 0 -24 14 -17
27 14 7 19 17 28 26 24 8 -3 14 -3 14 0 0 3 -7 8 -15 11 -10 4 -20 -3 -27 -19z"/>
<path d="M9356 5822 c-3 -5 1 -9 9 -9 8 0 12 4 9 9 -3 4 -7 8 -9 8 -2 0 -6 -4
-9 -8z"/>
<path d="M9335 5780 c-3 -6 1 -7 9 -4 18 7 21 14 7 14 -6 0 -13 -4 -16 -10z"/>
<path d="M9339 5753 c-13 -16 -12 -17 4 -4 16 13 21 21 13 21 -2 0 -10 -8 -17
-17z"/>
<path d="M9310 5741 c0 -6 4 -13 10 -16 6 -3 7 1 4 9 -7 18 -14 21 -14 7z"/>
<path d="M9274 5695 c1 -8 6 -18 11 -22 4 -4 5 -3 2 4 -4 6 -2 13 5 15 8 3 6
6 -4 10 -10 4 -15 2 -14 -7z"/>
<path d="M9306 5658 c3 -4 9 -8 15 -8 5 0 9 4 9 8 0 5 -7 9 -15 9 -8 0 -12 -4
-9 -9z"/>
<path d="M9260 5640 c-9 -6 -10 -10 -3 -10 6 0 15 5 18 10 8 12 4 12 -15 0z"/>
<path d="M9229 5606 c5 -6 7 -22 5 -35 -3 -14 -2 -22 2 -18 13 13 11 64 -2 64
-8 0 -10 -5 -5 -11z"/>
<path d="M9615 5566 c-81 -37 -132 -110 -141 -198 -9 -95 45 -196 129 -241 64
-33 176 -31 237 5 52 30 71 51 100 107 23 46 28 153 8 198 -56 131 -206 189
-333 129z"/>
<path d="M9210 5536 c0 -2 8 -10 18 -17 15 -13 16 -12 3 4 -13 16 -21 21 -21
13z"/>
<path d="M9095 5468 l-20 -21 21 11 c12 6 24 8 28 4 4 -3 4 1 0 11 -3 9 -7 17
-8 16 0 0 -10 -10 -21 -21z"/>
<path d="M9113 5375 c0 -8 4 -12 9 -9 5 3 6 10 3 15 -9 13 -12 11 -12 -6z"/>
<path d="M9173 5291 c0 -11 5 -18 9 -15 4 3 5 11 1 19 -7 21 -12 19 -10 -4z"/>
<path d="M9153 5230 c2 -8 10 -14 16 -12 14 3 15 -15 1 -23 -6 -4 -4 -15 6
-30 16 -24 34 -25 34 -2 0 7 -4 6 -11 -3 -9 -12 -10 -11 -6 7 4 17 1 20 -12
15 -14 -5 -14 -4 -2 12 11 13 11 20 3 28 -7 7 -12 8 -12 3 0 -6 -5 -3 -11 5
-9 13 -10 13 -6 0z"/>
<path d="M9235 5210 c-4 -6 -10 -8 -15 -5 -4 3 -7 -2 -6 -10 1 -8 4 -16 7 -17
2 -2 3 -1 1 1 -1 2 5 13 15 23 9 10 13 18 10 18 -3 0 -9 -5 -12 -10z"/>
<path d="M9219 5148 c-7 -23 -4 -39 7 -49 8 -6 11 -15 8 -20 -3 -5 0 -9 7 -9
7 0 10 -3 6 -6 -7 -8 20 -64 31 -64 4 0 14 4 22 10 12 8 12 10 -3 16 -9 3 -14
11 -10 18 4 6 -1 4 -12 -4 -16 -14 -17 -13 -11 8 5 13 3 22 -3 22 -6 0 -11 6
-11 14 0 8 -8 17 -17 21 -16 6 -15 8 7 21 25 15 25 15 1 8 -16 -4 -21 -3 -17
5 4 6 5 11 2 11 -3 0 -6 -1 -7 -2z m66 -128 c3 -5 1 -10 -4 -10 -6 0 -11 5
-11 10 0 6 2 10 4 10 3 0 8 -4 11 -10z"/>
<path d="M9261 5103 c8 -13 20 -23 28 -23 8 0 12 1 10 3 -2 1 -15 11 -28 22
l-24 20 14 -22z"/>
<path d="M9327 5059 c7 -7 15 -10 18 -7 3 3 -2 9 -12 12 -14 6 -15 5 -6 -5z"/>
<path d="M9300 5046 c0 -2 8 -10 18 -17 15 -13 16 -12 3 4 -13 16 -21 21 -21
13z"/>
<path d="M9295 4990 c-4 -6 -11 -7 -17 -4 -7 4 -8 2 -4 -4 7 -12 36 -5 36 9 0
12 -7 11 -15 -1z"/>
<path d="M9354 4976 c1 -8 5 -18 8 -22 4 -3 5 1 4 10 -1 8 -5 18 -8 22 -4 3
-5 -1 -4 -10z"/>
<path d="M9330 4966 c0 -8 4 -17 9 -20 5 -4 7 3 4 14 -6 23 -13 26 -13 6z"/>
<path d="M9370 4921 c0 -6 4 -13 10 -16 6 -3 7 1 4 9 -7 18 -14 21 -14 7z"/>
<path d="M9355 4850 c3 -5 8 -10 11 -10 2 0 4 5 4 10 0 6 -5 10 -11 10 -5 0
-7 -4 -4 -10z"/>
<path d="M9350 4820 c0 -5 5 -10 10 -10 6 0 9 -5 8 -11 -2 -6 4 -14 12 -16 12
-4 12 -3 2 5 -8 5 -13 12 -13 16 3 18 0 26 -9 26 -5 0 -10 -4 -10 -10z"/>
<path d="M9396 4775 c-10 -7 -16 -20 -13 -27 4 -11 6 -11 6 0 1 8 6 10 14 6 6
-4 9 -4 5 1 -4 4 -3 14 3 22 14 17 9 16 -15 -2z"/>
<path d="M9430 4680 c0 -5 5 -10 11 -10 5 0 7 5 4 10 -3 6 -8 10 -11 10 -2 0
-4 -4 -4 -10z"/>
<path d="M9450 4619 c0 -5 5 -7 10 -4 6 3 10 8 10 11 0 2 -4 4 -10 4 -5 0 -10
-5 -10 -11z"/>
<path d="M815 4580 c3 -5 8 -10 11 -10 2 0 4 5 4 10 0 6 -5 10 -11 10 -5 0 -7
-4 -4 -10z"/>
<path d="M9420 4546 c0 -7 40 -14 44 -7 3 4 -6 8 -20 9 -13 1 -24 0 -24 -2z"/>
<path d="M9383 4528 c-11 -15 -11 -118 0 -135 4 -6 3 -15 -3 -18 -8 -5 -7 -11
1 -21 6 -8 8 -14 4 -14 -4 0 -2 -6 4 -14 7 -9 8 -17 2 -20 -14 -9 -6 -41 10
-41 8 0 13 6 12 13 -2 6 2 12 7 12 6 0 10 5 10 12 0 9 -3 9 -12 0 -21 -21 -32
-13 -12 9 10 11 14 20 9 19 -25 -5 -28 2 -6 14 24 14 24 14 3 20 -17 6 -19 10
-9 21 6 7 17 10 22 7 6 -3 5 1 -1 9 -14 18 -14 49 0 49 6 1 0 10 -13 20 -17
15 -19 20 -8 20 9 0 19 5 23 11 4 8 -1 9 -17 4 -20 -6 -22 -5 -11 6 6 7 12 17
12 21 0 12 -16 10 -27 -4z m24 -79 c-1 -10 -5 -19 -10 -19 -5 0 -4 -6 2 -14 8
-10 9 -16 1 -21 -5 -3 -10 0 -11 7 -4 69 -3 75 8 71 6 -3 11 -13 10 -24z m-2
-97 c-3 -3 -11 0 -18 7 -9 10 -8 11 6 5 10 -3 15 -9 12 -12z"/>
<path d="M833 4515 c0 -8 4 -12 9 -9 5 3 6 10 3 15 -9 13 -12 11 -12 -6z"/>
<path d="M776 4473 c-6 -14 -5 -15 5 -6 7 7 10 15 7 18 -3 3 -9 -2 -12 -12z"/>
<path d="M810 4479 c0 -5 5 -7 10 -4 6 3 10 8 10 11 0 2 -4 4 -10 4 -5 0 -10
-5 -10 -11z"/>
<path d="M9430 4478 c0 -4 4 -8 9 -8 6 0 12 4 15 8 3 5 -1 9 -9 9 -8 0 -15 -4
-15 -9z"/>
<path d="M736 4467 c3 -10 9 -15 12 -12 3 3 0 11 -7 18 -10 9 -11 8 -5 -6z"/>
<path d="M9440 4420 c-9 -6 -10 -10 -3 -10 6 0 15 5 18 10 8 12 4 12 -15 0z"/>
<path d="M9428 4373 c7 -3 16 -2 19 1 4 3 -2 6 -13 5 -11 0 -14 -3 -6 -6z"/>
<path d="M9437 4343 c-10 -9 -9 -23 1 -23 5 0 9 7 9 15 0 17 -1 18 -10 8z"/>
<path d="M9446 4298 c3 -5 10 -6 15 -3 13 9 11 12 -6 12 -8 0 -12 -4 -9 -9z"/>
<path d="M9410 4243 c0 -5 7 -16 14 -26 12 -15 14 -15 19 -2 4 8 1 14 -6 12
-7 -1 -11 4 -9 11 1 6 -2 12 -8 12 -5 0 -10 -3 -10 -7z"/>
<path d="M9476 4233 c-6 -14 -5 -15 5 -6 7 7 10 15 7 18 -3 3 -9 -2 -12 -12z"/>
<path d="M656 4218 c3 -5 10 -6 15 -3 13 9 11 12 -6 12 -8 0 -12 -4 -9 -9z"/>
<path d="M665 4180 c-3 -6 1 -7 9 -4 18 7 21 14 7 14 -6 0 -13 -4 -16 -10z"/>
<path d="M9415 4179 c-4 -6 -4 -13 -1 -16 3 -4 6 -1 6 6 0 7 5 9 12 5 7 -4 8
-3 4 4 -9 15 -13 15 -21 1z"/>
<path d="M685 4160 c-3 -5 -1 -10 4 -10 6 0 11 5 11 10 0 6 -2 10 -4 10 -3 0
-8 -4 -11 -10z"/>
<path d="M655 4141 c-4 -7 -1 -10 7 -9 7 2 12 -5 11 -16 -1 -13 2 -15 10 -7 8
8 7 15 -5 27 -11 11 -18 13 -23 5z"/>
<path d="M607 4079 c7 -7 15 -10 18 -7 3 3 -2 9 -12 12 -14 6 -15 5 -6 -5z"/>
<path d="M9399 4080 c-3 -20 -4 -25 -13 -40 -7 -12 -6 -13 4 -3 13 12 25 53
15 53 -3 0 -6 -4 -6 -10z"/>
<path d="M9415 4031 c-3 -5 -2 -12 3 -15 5 -3 9 1 9 9 0 17 -3 19 -12 6z"/>
<path d="M650 3999 c0 -5 5 -7 10 -4 6 3 10 8 10 11 0 2 -4 4 -10 4 -5 0 -10
-5 -10 -11z"/>
<path d="M670 3959 c0 -5 5 -7 10 -4 6 3 10 8 10 11 0 2 -4 4 -10 4 -5 0 -10
-5 -10 -11z"/>
<path d="M669 3896 c5 -6 7 -19 6 -28 -2 -10 0 -18 5 -18 4 0 7 13 7 28 -1 16
-7 29 -14 29 -8 0 -9 -5 -4 -11z"/>
<path d="M9336 3902 c-3 -4 4 -9 15 -9 23 -2 25 3 4 10 -8 4 -16 3 -19 -1z"/>
<path d="M636 3862 c-3 -5 1 -9 9 -9 8 0 12 4 9 9 -3 4 -7 8 -9 8 -2 0 -6 -4
-9 -8z"/>
<path d="M9230 3799 c0 -5 -4 -8 -9 -5 -9 6 -6 -42 4 -52 4 -4 6 0 5 8 -4 28
0 39 13 36 6 -1 9 -1 4 1 -4 3 -5 9 -1 14 3 5 0 9 -5 9 -6 0 -11 -5 -11 -11z"/>
<path d="M9256 3753 c-6 -14 -5 -15 5 -6 7 7 10 15 7 18 -3 3 -9 -2 -12 -12z"/>
<path d="M9230 3700 c0 -5 5 -10 11 -10 5 0 7 5 4 10 -3 6 -8 10 -11 10 -2 0
-4 -4 -4 -10z"/>
<path d="M9119 3697 c-7 -13 -5 -57 2 -57 6 0 7 5 4 10 -3 6 1 13 9 16 20 8
20 20 1 28 -8 3 -16 4 -16 3z"/>
<path d="M9197 3693 c-10 -9 -9 -23 1 -23 5 0 9 7 9 15 0 17 -1 18 -10 8z"/>
<path d="M676 3679 c3 -5 9 -7 14 -4 4 3 11 0 13 -5 3 -6 4 -5 3 1 -1 7 -10
13 -19 15 -9 1 -15 -2 -11 -7z"/>
<path d="M9155 3661 c-3 -5 -2 -12 3 -15 5 -3 9 1 9 9 0 17 -3 19 -12 6z"/>
<path d="M9095 3619 c-4 -6 -4 -13 -1 -16 3 -4 6 -1 6 6 0 7 5 9 12 5 7 -4 8
-3 4 4 -9 15 -13 15 -21 1z"/>
<path d="M717 3573 c-10 -9 -9 -23 1 -23 5 0 9 7 9 15 0 17 -1 18 -10 8z"/>
<path d="M9025 3559 c-3 -4 2 -6 10 -5 21 3 28 13 10 13 -9 0 -18 -4 -20 -8z"/>
<path d="M8987 3548 c-12 -10 -14 -17 -6 -28 9 -13 10 -13 6 0 -2 8 3 20 12
27 9 7 13 13 10 13 -3 0 -13 -6 -22 -12z"/>
<path d="M8890 3518 c0 -10 -5 -18 -11 -18 -5 0 -7 5 -3 12 4 7 3 8 -5 4 -18
-12 -2 -28 21 -20 13 4 18 2 14 -4 -3 -6 -2 -13 3 -16 12 -8 8 14 -7 39 -10
18 -11 18 -12 3z"/>
<path d="M8915 3520 c3 -5 8 -10 11 -10 2 0 4 5 4 10 0 6 -5 10 -11 10 -5 0
-7 -4 -4 -10z"/>
<path d="M8951 3511 c-8 -5 -15 -19 -16 -30 -1 -11 2 -18 7 -15 5 3 7 11 5 17
-2 7 3 17 12 24 19 14 13 17 -8 4z"/>
<path d="M695 3500 c3 -5 8 -10 11 -10 2 0 4 5 4 10 0 6 -5 10 -11 10 -5 0 -7
-4 -4 -10z"/>
<path d="M726 3502 c-3 -5 1 -9 9 -9 8 0 12 4 9 9 -3 4 -7 8 -9 8 -2 0 -6 -4
-9 -8z"/>
<path d="M9010 3506 c0 -2 7 -7 16 -10 8 -3 12 -2 9 4 -6 10 -25 14 -25 6z"/>
<path d="M8785 3480 c-3 -5 -1 -10 5 -10 6 0 4 -10 -6 -24 -15 -24 -15 -25 5
-23 14 1 17 5 10 13 -6 7 -4 16 6 24 8 7 12 16 9 21 -7 12 -21 11 -29 -1z"/>
<path d="M8920 3435 c-7 -8 -17 -12 -23 -8 -6 4 -7 1 -3 -6 6 -9 13 -8 27 5
10 9 19 19 19 21 0 7 -8 2 -20 -12z"/>
<path d="M8954 3396 c1 -8 5 -18 8 -22 4 -3 5 1 4 10 -1 8 -5 18 -8 22 -4 3
-5 -1 -4 -10z"/>
<path d="M8790 3386 c0 -2 7 -7 16 -10 8 -3 12 -2 9 4 -6 10 -25 14 -25 6z"/>
<path d="M8895 3380 c-3 -6 1 -7 9 -4 18 7 21 14 7 14 -6 0 -13 -4 -16 -10z"/>
<path d="M8930 3351 c0 -6 4 -13 10 -16 6 -3 7 1 4 9 -7 18 -14 21 -14 7z"/>
<path d="M8992 3291 c7 -9 13 -18 15 -20 1 -2 1 5 0 16 0 11 -7 20 -14 20 -10
0 -10 -4 -1 -16z"/>
<path d="M837 3240 c-3 -11 -2 -22 2 -24 4 -3 8 6 9 20 2 29 -4 31 -11 4z"/>
<path d="M9010 3240 c-9 -6 -10 -10 -3 -10 6 0 15 5 18 10 8 12 4 12 -15 0z"/>
<path d="M9075 3210 c-4 -6 -11 -7 -17 -4 -7 4 -8 2 -4 -5 6 -9 11 -9 22 0 14
11 18 19 10 19 -3 0 -8 -5 -11 -10z"/>
<path d="M830 3159 c0 -5 5 -7 10 -4 6 3 10 8 10 11 0 2 -4 4 -10 4 -5 0 -10
-5 -10 -11z"/>
<path d="M9066 3133 c-6 -14 -5 -15 5 -6 7 7 10 15 7 18 -3 3 -9 -2 -12 -12z"/>
<path d="M926 3122 c-3 -5 1 -9 9 -9 8 0 12 4 9 9 -3 4 -7 8 -9 8 -2 0 -6 -4
-9 -8z"/>
<path d="M9130 3119 c0 -5 5 -7 10 -4 6 3 10 8 10 11 0 2 -4 4 -10 4 -5 0 -10
-5 -10 -11z"/>
<path d="M893 3095 c0 -8 4 -12 9 -9 5 3 6 10 3 15 -9 13 -12 11 -12 -6z"/>
<path d="M9050 3081 c5 -11 15 -23 21 -27 6 -3 3 5 -6 20 -20 30 -30 35 -15 7z"/>
<path d="M973 3075 c0 -8 4 -12 9 -9 5 3 6 10 3 15 -9 13 -12 11 -12 -6z"/>
<path d="M9111 3073 c7 -12 15 -20 18 -17 3 2 -3 12 -13 22 -17 16 -18 16 -5
-5z"/>
<path d="M1000 3071 c0 -6 4 -13 10 -16 6 -3 7 1 4 9 -7 18 -14 21 -14 7z"/>
<path d="M1030 3043 c0 -13 17 -26 38 -29 6 -1 10 2 6 7 -3 5 -9 7 -14 4 -5
-3 -13 3 -19 12 -6 10 -11 13 -11 6z"/>
<path d="M9155 3000 c-3 -5 -1 -10 4 -10 6 0 11 5 11 10 0 6 -2 10 -4 10 -3 0
-8 -4 -11 -10z"/>
<path d="M1135 2929 c-4 -6 -5 -12 -2 -15 2 -3 7 2 10 11 7 17 1 20 -8 4z"/>
<path d="M1523 2833 c-15 -5 -17 -23 -4 -23 5 0 11 7 15 15 3 8 4 15 3 14 -1
0 -8 -3 -14 -6z"/>
<path d="M1550 2825 c-7 -8 -9 -15 -5 -15 4 0 1 -8 -6 -17 -13 -16 -12 -17 3
-4 10 7 16 17 13 21 -3 5 1 10 7 13 7 2 10 7 7 11 -3 4 -12 0 -19 -9z"/>
<path d="M1724 2819 c-20 -33 -7 -62 16 -34 8 9 8 20 2 31 -8 14 -11 14 -18 3z
m11 -18 c3 -5 2 -12 -3 -15 -5 -3 -9 1 -9 9 0 17 3 19 12 6z"/>
<path d="M1470 2801 c0 -6 4 -13 10 -16 6 -3 7 1 4 9 -7 18 -14 21 -14 7z"/>
<path d="M9170 2800 c0 -5 5 -10 10 -10 6 0 10 5 10 10 0 6 -4 10 -10 10 -5 0
-10 -4 -10 -10z"/>
<path d="M1560 2775 c-7 -8 -17 -12 -23 -8 -6 4 -7 1 -3 -6 6 -9 12 -9 25 3
10 9 21 13 26 9 4 -5 5 -2 1 5 -9 15 -11 15 -26 -3z"/>
<path d="M9160 2768 c0 -9 7 -19 16 -22 15 -6 15 -4 3 11 -7 10 -15 20 -16 22
-2 2 -3 -3 -3 -11z"/>
<path d="M1605 2760 c-16 -7 -17 -9 -3 -9 9 -1 20 4 23 9 7 11 7 11 -20 0z"/>
<path d="M1644 2761 c4 -5 0 -11 -6 -14 -7 -2 -9 -8 -5 -13 4 -5 12 -2 17 6
13 20 12 30 -1 30 -5 0 -8 -4 -5 -9z"/>
<path d="M9129 2748 c-9 -30 -6 -35 16 -24 16 7 20 13 12 18 -12 8 -26 10 -28
6z"/>
<path d="M9189 2717 c6 -8 7 -18 3 -22 -4 -5 -1 -5 6 -1 10 6 10 11 1 22 -6 8
-14 14 -16 14 -3 0 0 -6 6 -13z"/>
<path d="M1597 2693 c-10 -10 -8 -23 4 -23 5 0 8 4 5 9 -4 5 0 12 6 14 7 3 8
6 2 6 -6 1 -14 -2 -17 -6z"/>
<path d="M1575 2649 c-4 -6 -5 -12 -2 -15 2 -3 7 2 10 11 7 17 1 20 -8 4z"/>
<path d="M9114 2622 c3 -6 2 -13 -3 -16 -5 -4 -8 -12 -7 -19 2 -15 36 -65 36
-53 0 5 -7 17 -16 27 -10 11 -12 19 -5 24 6 3 11 1 11 -4 0 -6 5 -11 11 -11 8
0 8 4 -1 15 -10 12 -7 14 19 10 18 -2 29 0 25 6 -3 5 -10 7 -15 3 -5 -3 -21 2
-36 11 -14 9 -23 12 -19 7z"/>
<path d="M9378 2619 c-10 -6 -18 -7 -18 -4 0 3 -17 -3 -38 -14 -43 -22 -112
-93 -112 -116 0 -8 -4 -15 -8 -15 -10 0 -12 -13 -12 -93 0 -249 331 -334 458
-118 23 39 27 57 26 121 0 76 -17 123 -63 174 -44 50 -189 90 -233 65z"/>
<path d="M1520 2606 c0 -2 8 -10 18 -17 15 -13 16 -12 3 4 -13 16 -21 21 -21
13z"/>
<path d="M9163 2558 c-10 -17 -12 -57 -3 -63 4 -2 6 8 5 23 -1 15 2 33 8 40 5
6 7 12 4 12 -3 0 -9 -6 -14 -12z"/>
<path d="M1520 2540 c-9 -6 -10 -10 -3 -10 6 0 15 5 18 10 8 12 4 12 -15 0z"/>
<path d="M9096 2542 c-3 -5 1 -12 9 -16 8 -3 15 -10 15 -16 0 -6 -4 -8 -10 -5
-5 3 -10 2 -10 -4 0 -5 9 -9 19 -8 15 1 17 5 11 17 -21 36 -28 42 -34 32z"/>
<path d="M9075 2465 c-16 -7 -24 -14 -16 -14 11 -1 10 -5 -5 -17 -18 -14 -18
-15 4 -4 12 6 20 15 17 21 -4 5 1 9 10 9 9 0 14 -4 10 -9 -3 -5 -2 -12 3 -15
4 -2 8 6 8 20 0 13 0 24 0 24 -1 -1 -14 -7 -31 -15z"/>
<path d="M9064 2414 c-18 -14 -18 -15 4 -4 12 6 22 13 22 15 0 8 -5 6 -26 -11z"/>
<path d="M9086 2405 c-18 -14 -18 -14 1 -12 11 0 20 7 20 14 0 7 -1 13 -1 13
-1 0 -9 -7 -20 -15z"/>
<path d="M9005 2372 c-14 -10 -18 -35 -5 -27 7 4 9 -3 6 -19 -3 -15 -1 -24 5
-21 5 4 7 11 4 16 -4 5 -1 9 6 9 10 0 10 3 1 12 -19 19 -14 32 6 17 15 -13 16
-12 3 4 -16 20 -13 19 -26 9z"/>
<path d="M9115 2371 c-3 -5 -2 -12 3 -15 5 -3 9 1 9 9 0 17 -3 19 -12 6z"/>
<path d="M1442 2338 c-17 -17 -15 -28 6 -27 11 0 12 2 4 6 -10 4 -10 8 -1 19
14 17 8 19 -9 2z"/>
<path d="M1414 2278 c-4 -7 -4 -10 1 -6 4 4 15 2 24 -5 14 -11 14 -10 2 6 -16
20 -18 21 -27 5z"/>
<path d="M8990 2281 c0 -6 4 -12 8 -15 5 -3 9 1 9 9 0 8 -4 15 -9 15 -4 0 -8
-4 -8 -9z"/>
<path d="M8855 2223 l-28 -25 23 -21 c13 -12 18 -14 11 -4 -8 10 -9 17 -3 17
6 0 14 -4 17 -10 3 -5 12 -10 18 -10 8 0 8 3 -1 9 -11 6 -8 13 11 28 l24 19
-22 10 c-18 9 -27 6 -50 -13z m32 -20 c-12 -13 -17 -14 -17 -4 0 11 -3 11 -17
0 -10 -7 -7 -1 6 14 17 19 28 24 35 17 7 -7 5 -16 -7 -27z"/>
<path d="M1423 2216 c-3 -6 -3 -8 2 -4 4 4 13 1 19 -8 10 -13 12 -13 12 4 0
20 -23 26 -33 8z"/>
<path d="M8924 2206 c-10 -8 -16 -18 -11 -22 4 -4 7 -2 7 5 0 7 4 10 9 7 5 -3
11 1 15 9 7 19 5 19 -20 1z"/>
<path d="M1356 2198 c3 -5 10 -6 15 -3 13 9 11 12 -6 12 -8 0 -12 -4 -9 -9z"/>
<path d="M8827 2119 c7 -7 15 -10 18 -7 3 3 -2 9 -12 12 -14 6 -15 5 -6 -5z"/>
<path d="M8774 2098 c-3 -5 0 -7 8 -6 7 2 12 -4 10 -12 -2 -8 0 -11 4 -7 14
13 12 34 -3 34 -7 0 -16 -4 -19 -9z"/>
<path d="M8370 2036 c-4 -12 -9 -25 -10 -31 -1 -5 -6 -15 -11 -21 -5 -7 -4
-11 5 -11 7 0 13 7 12 16 -1 17 39 63 47 54 3 -3 3 -12 0 -21 -4 -12 -3 -14 5
-7 22 21 17 38 -11 40 -21 1 -31 -4 -37 -19z"/>
<path d="M8635 2040 c-3 -6 1 -7 9 -4 18 7 21 14 7 14 -6 0 -13 -4 -16 -10z"/>
<path d="M8694 2042 c4 -3 14 -7 22 -8 9 -1 13 0 10 4 -4 3 -14 7 -22 8 -9 1
-13 0 -10 -4z"/>
<path d="M8002 2010 c-22 -21 -37 -27 -27 -11 3 5 1 12 -4 15 -16 10 -23 -13
-9 -28 15 -15 30 -8 57 27 18 23 10 22 -17 -3z"/>
<path d="M8446 2017 c3 -10 9 -15 12 -12 3 3 0 11 -7 18 -10 9 -11 8 -5 -6z"/>
<path d="M8513 2008 c1 -15 6 -23 11 -18 4 4 4 16 -2 26 -9 16 -10 14 -9 -8z"/>
<path d="M8550 2022 c0 -4 10 -9 22 -9 18 -2 20 0 8 7 -18 12 -30 13 -30 2z"/>
<path d="M7910 2005 c-7 -8 -9 -15 -4 -15 5 0 1 -5 -8 -11 -10 -5 -18 -15 -18
-20 0 -6 8 -3 18 7 15 16 17 16 20 2 2 -9 10 -19 19 -22 12 -5 13 -4 5 7 -6 7
-10 23 -7 35 5 27 -9 36 -25 17z m17 -10 c0 -8 -4 -12 -9 -9 -5 3 -6 10 -3 15
9 13 12 11 12 -6z"/>
<path d="M7790 1995 c-9 -11 -17 -12 -34 -4 -19 9 -20 9 -3 -4 16 -14 16 -15
1 -21 -9 -4 -14 -9 -11 -13 4 -3 14 0 22 7 12 10 19 10 27 2 7 -7 17 -12 23
-12 5 0 2 5 -7 11 -10 5 -18 14 -18 20 0 5 11 2 25 -7 14 -9 22 -21 18 -27 -4
-6 -1 -7 6 -2 9 5 10 10 2 18 -20 20 -11 31 9 12 11 -10 20 -13 20 -7 0 7 -5
12 -11 12 -5 0 -8 4 -4 10 3 5 12 7 20 3 8 -3 15 -1 15 4 0 4 -13 9 -30 9 -16
1 -30 -3 -30 -8 0 -7 -5 -6 -14 1 -10 9 -16 8 -26 -4z"/>
<path d="M8230 2001 c0 -6 4 -13 10 -16 6 -3 7 1 4 9 -7 18 -14 21 -14 7z"/>
<path d="M8380 2006 c0 -2 7 -7 16 -10 8 -3 12 -2 9 4 -6 10 -25 14 -25 6z"/>
<path d="M1469 1977 c6 -8 9 -16 6 -19 -3 -2 2 -5 10 -5 13 0 13 3 -2 19 -19
21 -31 25 -14 5z"/>
<path d="M8075 1979 c-4 -6 -4 -13 -1 -16 3 -4 6 -1 6 6 0 7 5 9 12 5 7 -4 8
-3 4 4 -9 15 -13 15 -21 1z"/>
<path d="M8214 1965 c0 -13 3 -22 7 -19 8 4 6 30 -2 38 -3 3 -5 -5 -5 -19z"/>
<path d="M8455 1980 c3 -5 8 -10 11 -10 2 0 4 5 4 10 0 6 -5 10 -11 10 -5 0
-7 -4 -4 -10z"/>
<path d="M8001 1971 c-8 -5 -9 -11 -3 -15 5 -3 12 1 16 9 6 17 6 18 -13 6z"/>
<path d="M8433 1955 c0 -8 4 -12 9 -9 5 3 6 10 3 15 -9 13 -12 11 -12 -6z"/>
<path d="M7273 1945 c0 -8 4 -15 9 -15 4 0 8 4 8 9 0 6 -4 12 -8 15 -5 3 -9
-1 -9 -9z"/>
<path d="M7855 1940 c-3 -5 -1 -10 4 -10 6 0 11 5 11 10 0 6 -2 10 -4 10 -3 0
-8 -4 -11 -10z"/>
<path d="M8070 1939 c0 -5 5 -7 10 -4 6 3 10 8 10 11 0 2 -4 4 -10 4 -5 0 -10
-5 -10 -11z"/>
<path d="M8130 1939 c0 -5 5 -7 10 -4 6 3 10 8 10 11 0 2 -4 4 -10 4 -5 0 -10
-5 -10 -11z"/>
<path d="M8175 1940 c3 -5 8 -10 11 -10 2 0 4 5 4 10 0 6 -5 10 -11 10 -5 0
-7 -4 -4 -10z"/>
<path d="M7054 1928 c-4 -7 -3 -8 4 -4 7 4 12 3 12 -2 0 -5 7 -9 15 -9 20 0
19 4 -4 17 -14 7 -22 7 -27 -2z"/>
<path d="M7737 1929 c7 -7 15 -10 18 -7 3 3 -2 9 -12 12 -14 6 -15 5 -6 -5z"/>
<path d="M7795 1930 c-4 -6 -11 -7 -17 -4 -7 4 -8 2 -4 -5 6 -9 11 -9 22 0 14
11 18 19 10 19 -3 0 -8 -5 -11 -10z"/>
<path d="M7633 1910 c1 -21 10 -18 13 5 1 8 -2 15 -6 15 -5 0 -8 -9 -7 -20z"/>
<path d="M6871 1903 c-11 -21 3 -53 16 -39 4 5 3 11 -4 13 -7 2 -9 11 -6 19 4
12 8 12 19 -3 8 -11 13 -13 14 -5 0 6 4 12 10 12 5 0 7 -7 4 -15 -4 -8 -1 -15
6 -15 6 0 8 5 4 11 -4 7 -1 10 7 7 8 -3 13 -12 11 -22 -2 -9 1 -16 7 -16 10 0
9 19 -2 38 -5 6 -6 16 -2 21 6 10 -33 6 -43 -4 -3 -2 -11 0 -18 6 -9 7 -15 5
-23 -8z"/>
<path d="M7426 1904 c-5 -14 -4 -15 9 -4 17 14 19 20 6 20 -5 0 -12 -7 -15
-16z"/>
<path d="M7471 1911 c-10 -7 -7 -9 12 -8 14 1 23 5 20 10 -6 9 -15 9 -32 -2z"/>
<path d="M7869 1903 c-13 -16 -12 -17 4 -4 16 13 21 21 13 21 -2 0 -10 -8 -17
-17z"/>
<path d="M6740 1895 c-7 -9 -19 -14 -27 -11 -7 3 -13 1 -13 -3 0 -5 7 -11 15
-15 8 -3 15 0 15 6 0 7 5 6 15 -2 13 -10 19 -9 37 6 20 19 21 19 14 -6 -3 -14
-3 -19 0 -13 4 10 11 10 27 2 12 -7 19 -8 14 -4 -4 5 -1 18 7 30 13 19 12 21
-10 21 -13 0 -24 -5 -24 -10 0 -6 -5 -4 -10 4 -8 13 -10 13 -10 1 0 -12 -3
-12 -12 -3 -16 16 -23 15 -38 -3z m35 -4 c7 -12 -12 -24 -25 -16 -11 7 -4 25
10 25 5 0 11 -4 15 -9z m59 -6 c-7 -16 -24 -21 -24 -6 0 8 7 13 27 20 1 1 0
-6 -3 -14z"/>
<path d="M6613 1882 c-3 -9 -8 -20 -10 -24 -2 -4 3 -5 13 -1 14 5 15 3 5 -18
-11 -22 -11 -23 3 -5 15 18 42 13 30 -6 -4 -7 -2 -8 4 -4 9 5 8 13 -3 30 -8
12 -13 25 -10 28 3 3 -1 8 -10 12 -10 3 -18 -1 -22 -12z m21 -8 c3 -8 2 -12
-4 -9 -6 3 -10 10 -10 16 0 14 7 11 14 -7z"/>
<path d="M7395 1889 c-4 -6 -5 -12 -2 -15 2 -3 7 2 10 11 7 17 1 20 -8 4z"/>
<path d="M7359 1873 c-13 -16 -12 -17 4 -4 16 13 21 21 13 21 -2 0 -10 -8 -17
-17z"/>
<path d="M7040 1860 c-9 -6 -10 -10 -3 -10 6 0 15 5 18 10 8 12 4 12 -15 0z"/>
<path d="M7413 1855 c0 -8 4 -12 9 -9 5 3 6 10 3 15 -9 13 -12 11 -12 -6z"/>
<path d="M6265 1840 c-12 -14 -11 -17 8 -29 18 -11 20 -11 10 0 -21 21 -15 34
7 14 19 -17 26 -12 21 18 -2 16 18 6 24 -12 4 -13 13 -18 26 -16 16 3 18 -1
15 -22 -3 -14 -2 -23 1 -19 15 15 11 45 -8 62 -26 23 -84 26 -104 4z m40 -8
c-3 -3 -11 0 -18 7 -9 10 -8 11 6 5 10 -3 15 -9 12 -12z m55 3 c11 -13 10 -14
-4 -9 -9 3 -16 10 -16 15 0 13 6 11 20 -6z"/>
<path d="M7515 1849 c-4 -6 -5 -12 -2 -15 2 -3 7 2 10 11 7 17 1 20 -8 4z"/>
<path d="M1514 1834 c1 -8 4 -15 7 -16 2 -2 3 -1 2 1 -2 2 2 9 7 16 7 8 5 12
-4 12 -8 0 -13 -6 -12 -13z"/>
<path d="M6235 1839 c-4 -6 -5 -12 -2 -15 2 -3 7 2 10 11 7 17 1 20 -8 4z"/>
<path d="M6720 1840 c-8 -5 -10 -10 -5 -10 6 0 17 5 25 10 8 5 11 10 5 10 -5
0 -17 -5 -25 -10z"/>
<path d="M6766 1842 c-3 -5 1 -9 9 -9 8 0 12 4 9 9 -3 4 -7 8 -9 8 -2 0 -6 -4
-9 -8z"/>
<path d="M6850 1842 c0 -5 7 -9 15 -9 8 0 12 4 9 9 -3 4 -9 8 -15 8 -5 0 -9
-4 -9 -8z"/>
<path d="M6557 1833 c-11 -11 -8 -20 7 -20 8 0 12 6 9 14 -6 15 -7 15 -16 6z"/>
<path d="M6989 1823 c-13 -16 -12 -17 4 -4 16 13 21 21 13 21 -2 0 -10 -8 -17
-17z"/>
<path d="M5942 1818 c-9 -9 -8 -16 5 -30 9 -10 11 -18 5 -18 -6 0 -14 5 -17
10 -3 6 -10 10 -16 10 -5 0 -9 -4 -9 -10 0 -5 6 -9 13 -7 6 1 11 -6 11 -15 -2
-16 1 -16 23 2 14 11 29 17 34 14 5 -3 1 9 -9 25 -19 34 -23 36 -40 19z m33
-36 c-8 -9 -35 20 -28 31 4 6 11 3 19 -8 8 -10 12 -21 9 -23z"/>
<path d="M5994 1814 c9 -6 13 -14 9 -17 -3 -4 -1 -7 5 -7 6 0 10 8 9 18 0 10
-9 18 -20 18 -16 0 -16 -2 -3 -12z"/>
<path d="M6747 1819 c7 -7 15 -10 18 -7 3 3 -2 9 -12 12 -14 6 -15 5 -6 -5z"/>
<path d="M6916 1818 c3 -4 11 -5 19 -1 21 7 19 12 -4 10 -11 0 -18 -5 -15 -9z"/>
<path d="M5821 1803 c-6 -10 -11 -13 -11 -8 0 12 -40 18 -40 7 0 -4 -9 -8 -20
-9 -11 -1 -18 2 -15 7 3 4 -3 7 -12 5 -10 -1 -17 -9 -15 -18 1 -8 -2 -18 -8
-22 -5 -3 -10 -12 -10 -18 0 -7 5 -4 11 6 9 15 13 16 27 6 14 -11 15 -11 5 1
-7 8 -13 19 -13 25 1 5 12 -3 25 -20 14 -16 25 -25 25 -18 0 6 -4 15 -10 18
-5 3 -10 11 -10 17 0 7 4 7 13 -1 10 -8 17 -7 25 1 8 8 16 8 28 -3 12 -9 15
-10 10 -1 -5 9 2 11 29 7 25 -3 38 0 42 10 3 8 10 12 16 8 5 -3 7 -1 4 5 -8
11 -25 11 -44 -1 -6 -4 -14 -3 -18 3 -9 15 -23 12 -34 -7z m29 -3 c0 -5 -2
-10 -4 -10 -3 0 -8 5 -11 10 -3 6 -1 10 4 10 6 0 11 -4 11 -10z m40 0 c0 -5
-5 -10 -11 -10 -5 0 -7 5 -4 10 3 6 8 10 11 10 2 0 4 -4 4 -10z"/>
<path d="M6320 1811 c0 -6 4 -13 10 -16 6 -3 7 1 4 9 -7 18 -14 21 -14 7z"/>
<path d="M6230 1798 c0 -6 3 -8 7 -5 3 4 12 2 20 -5 11 -8 12 -7 7 6 -7 18
-34 22 -34 4z"/>
<path d="M6414 1796 c1 -8 5 -18 8 -22 4 -3 5 1 4 10 -1 8 -5 18 -8 22 -4 3
-5 -1 -4 -10z"/>
<path d="M6510 1799 c0 -5 5 -7 10 -4 6 3 10 8 10 11 0 2 -4 4 -10 4 -5 0 -10
-5 -10 -11z"/>
<path d="M6050 1770 c-6 -11 -8 -20 -6 -20 3 0 10 9 16 20 6 11 8 20 6 20 -3
0 -10 -9 -16 -20z"/>
<path d="M6080 1786 c0 -2 7 -7 16 -10 8 -3 12 -2 9 4 -6 10 -25 14 -25 6z"/>
<path d="M6136 1781 c-3 -4 6 -6 19 -3 14 2 25 6 25 8 0 8 -39 4 -44 -5z"/>
<path d="M1360 1752 c-67 -34 -95 -124 -59 -194 68 -133 270 -88 275 62 0 25
-3 51 -9 58 -5 6 -6 12 -1 12 5 0 3 4 -5 9 -13 8 -13 12 -1 28 11 14 11 15 1
6 -11 -9 -21 -7 -50 13 -43 29 -101 32 -151 6z"/>
<path d="M5787 1751 c-3 -13 0 -18 7 -15 7 3 13 11 13 19 0 22 -14 18 -20 -4z"/>
<path d="M5850 1760 c0 -5 8 -7 18 -5 9 1 23 -2 30 -8 9 -7 11 -6 7 5 -6 16
-55 22 -55 8z"/>
<path d="M6000 1760 c-9 -6 -10 -10 -3 -10 6 0 15 5 18 10 8 12 4 12 -15 0z"/>
<path d="M5154 1749 c-4 -8 -3 -9 4 -5 13 8 17 -6 5 -18 -11 -11 -12 -36 -1
-36 6 0 8 7 5 15 -4 8 -2 17 3 20 6 4 10 2 10 -3 0 -6 6 -12 13 -15 8 -3 14 1
14 9 0 7 -5 10 -10 7 -7 -4 -8 1 -3 13 4 10 4 15 0 11 -4 -4 -13 -2 -20 4 -8
7 -14 6 -20 -2z"/>
<path d="M5826 1743 c-6 -14 -5 -15 5 -6 7 7 10 15 7 18 -3 3 -9 -2 -12 -12z"/>
<path d="M5713 1738 c1 -7 -4 -12 -11 -10 -8 1 -11 -2 -7 -8 5 -8 11 -8 21 1
7 6 11 15 8 20 -8 13 -14 11 -11 -3z"/>
<path d="M1598 1733 c7 -3 16 -2 19 1 4 3 -2 6 -13 5 -11 0 -14 -3 -6 -6z"/>
<path d="M4985 1709 c8 -14 11 -30 7 -34 -4 -5 -2 -5 5 -1 7 4 9 14 6 24 -6
14 -4 15 9 4 13 -10 17 -10 21 0 9 25 2 33 -30 33 -31 1 -31 1 -18 -26z m49 9
c-3 -4 -9 -8 -15 -8 -5 0 -9 4 -9 8 0 5 7 9 15 9 8 0 12 -4 9 -9z"/>
<path d="M5467 1727 c-3 -8 1 -14 8 -14 7 0 11 6 8 14 -3 7 -6 13 -8 13 -2 0
-5 -6 -8 -13z"/>
<path d="M6033 1727 c0 -8 6 -14 14 -14 9 0 10 4 2 14 -6 7 -12 13 -14 13 -1
0 -2 -6 -2 -13z"/>
<path d="M6113 1725 c0 -8 4 -12 9 -9 5 3 6 10 3 15 -9 13 -12 11 -12 -6z"/>
<path d="M4917 1724 c-3 -4 0 -16 8 -26 7 -11 11 -28 8 -37 -4 -13 -3 -13 5
-2 6 8 8 21 5 29 -5 12 -2 12 15 3 18 -10 21 -9 16 4 -4 9 -9 13 -12 10 -3 -3
-13 2 -22 10 -9 8 -19 12 -23 9z"/>
<path d="M5410 1719 c0 -5 5 -7 10 -4 6 3 10 8 10 11 0 2 -4 4 -10 4 -5 0 -10
-5 -10 -11z"/>
<path d="M5630 1720 c0 -5 5 -10 11 -10 5 0 7 5 4 10 -3 6 -8 10 -11 10 -2 0
-4 -4 -4 -10z"/>
<path d="M4753 1703 c-3 -7 -10 -10 -17 -6 -6 4 -4 -2 4 -13 22 -29 24 -30 16
-10 -5 14 -2 17 9 12 8 -3 14 -2 14 2 -3 18 2 26 10 14 7 -11 9 -11 14 0 3 10
-3 14 -20 14 -14 0 -27 -6 -30 -13z"/>
<path d="M5057 1713 c-4 -3 -7 -11 -7 -17 0 -6 5 -5 12 2 6 6 9 14 7 17 -3 3
-9 2 -12 -2z"/>
<path d="M1633 1695 c0 -8 4 -12 9 -9 5 3 6 10 3 15 -9 13 -12 11 -12 -6z"/>
<path d="M4684 1697 c11 -8 16 -19 12 -25 -3 -6 -2 -13 3 -16 5 -4 12 -2 16 4
4 6 11 7 17 4 7 -4 8 -2 4 5 -4 6 -12 9 -17 5 -6 -3 -9 2 -7 11 2 12 -5 19
-22 22 -23 3 -23 3 -6 -10z"/>
<path d="M5086 1697 c3 -10 9 -15 12 -12 3 3 0 11 -7 18 -10 9 -11 8 -5 -6z"/>
<path d="M5270 1699 c0 -5 5 -7 10 -4 6 3 10 8 10 11 0 2 -4 4 -10 4 -5 0 -10
-5 -10 -11z"/>
<path d="M5420 1700 c-12 -7 -10 -9 8 -7 12 0 22 5 22 9 0 11 -12 10 -30 -2z"/>
<path d="M4521 1683 c-6 -10 -11 -13 -11 -7 0 11 -47 13 -65 3 -5 -4 -18 -5
-27 -4 -18 3 -68 -37 -68 -55 0 -5 8 -10 18 -9 9 0 12 3 5 5 -13 6 -6 34 9 34
5 0 6 -5 2 -12 -4 -7 -3 -8 5 -4 6 4 9 11 6 16 -3 5 -1 11 5 15 5 3 13 -7 17
-22 l7 -28 6 25 c3 14 12 25 20 26 24 1 33 -8 19 -18 -11 -7 -9 -8 4 -4 11 3
24 3 30 -1 18 -11 38 -12 31 -2 -3 5 -9 7 -12 5 -4 -2 -19 5 -32 16 -24 19
-18 19 24 2 8 -3 16 3 19 15 6 26 1 27 -12 4z"/>
<path d="M5473 1685 c0 -8 4 -12 9 -9 5 3 6 10 3 15 -9 13 -12 11 -12 -6z"/>
<path d="M5118 1683 c7 -3 16 -2 19 1 4 3 -2 6 -13 5 -11 0 -14 -3 -6 -6z"/>
<path d="M5279 1673 c-13 -16 -12 -17 4 -4 16 13 21 21 13 21 -2 0 -10 -8 -17
-17z"/>
<path d="M4790 1671 c0 -5 7 -11 14 -14 10 -4 13 -1 9 9 -6 15 -23 19 -23 5z"/>
<path d="M4867 1667 c-3 -7 3 -13 13 -13 10 0 16 6 13 13 -3 7 -9 13 -13 13
-4 0 -10 -6 -13 -13z"/>
<path d="M5030 1669 c0 -5 5 -7 10 -4 6 3 10 8 10 11 0 2 -4 4 -10 4 -5 0 -10
-5 -10 -11z"/>
<path d="M5090 1659 c0 -5 5 -7 10 -4 6 3 10 8 10 11 0 2 -4 4 -10 4 -5 0 -10
-5 -10 -11z"/>
<path d="M4835 1649 c-4 -6 -5 -12 -2 -15 2 -3 7 2 10 11 7 17 1 20 -8 4z"/>
<path d="M4570 1640 c0 -5 5 -10 10 -10 6 0 10 5 10 10 0 6 -4 10 -10 10 -5 0
-10 -4 -10 -10z"/>
<path d="M4610 1642 c0 -5 7 -9 15 -9 8 0 12 4 9 9 -3 4 -9 8 -15 8 -5 0 -9
-4 -9 -8z"/>
<path d="M4670 1641 c0 -6 4 -12 8 -15 5 -3 9 1 9 9 0 8 -4 15 -9 15 -4 0 -8
-4 -8 -9z"/>
<path d="M5073 1635 c0 -8 4 -12 9 -9 5 3 6 10 3 15 -9 13 -12 11 -12 -6z"/>
<path d="M3946 1632 c-3 -5 4 -17 16 -26 19 -17 20 -17 15 -1 -4 9 -7 21 -7
26 0 11 -17 12 -24 1z"/>
<path d="M1656 1618 c3 -5 10 -6 15 -3 13 9 11 12 -6 12 -8 0 -12 -4 -9 -9z"/>
<path d="M3850 1603 c0 -12 5 -25 11 -29 7 -4 9 0 5 13 -7 23 19 28 43 9 11
-8 13 -8 7 2 -10 16 2 15 19 -2 8 -7 11 -17 7 -21 -4 -5 -1 -5 6 -1 9 6 8 12
-5 30 -12 16 -27 22 -55 22 -33 0 -38 -3 -38 -23z"/>
<path d="M4395 1621 c-3 -5 -2 -12 3 -15 5 -3 9 1 9 9 0 17 -3 19 -12 6z"/>
<path d="M4459 1628 c-5 -18 -6 -39 -2 -34 4 3 13 0 22 -6 12 -10 12 -7 -2 8
-9 11 -14 24 -10 27 3 4 3 7 0 7 -4 0 -7 -1 -8 -2z"/>
<path d="M4895 1621 c-3 -5 -2 -12 3 -15 5 -3 9 1 9 9 0 17 -3 19 -12 6z"/>
<path d="M4177 1606 c-4 -9 -1 -15 6 -13 7 1 11 -4 9 -11 -1 -8 2 -11 8 -7 8
5 7 12 -2 23 -7 10 -13 18 -14 20 -1 2 -4 -4 -7 -12z"/>
<path d="M4575 1611 c-3 -5 -2 -12 3 -15 5 -3 9 1 9 9 0 17 -3 19 -12 6z"/>
<path d="M3626 1598 c3 -4 9 -8 15 -8 5 0 9 4 9 8 0 5 -7 9 -15 9 -8 0 -12 -4
-9 -9z"/>
<path d="M4130 1606 c0 -2 7 -7 16 -10 8 -3 12 -2 9 4 -6 10 -25 14 -25 6z"/>
<path d="M4299 1608 c-5 -18 -6 -38 -1 -34 7 8 12 36 6 36 -2 0 -4 -1 -5 -2z"/>
<path d="M4650 1606 c0 -2 7 -7 16 -10 8 -3 12 -2 9 4 -6 10 -25 14 -25 6z"/>
<path d="M3986 1583 c-6 -14 -5 -15 5 -6 7 7 10 15 7 18 -3 3 -9 -2 -12 -12z"/>
<path d="M3420 1575 c-6 -8 -9 -18 -6 -24 4 -5 -2 -12 -11 -14 -10 -3 -6 -4 9
-4 18 1 24 5 18 11 -16 16 -11 30 5 16 11 -9 15 -9 15 -1 0 7 5 9 10 6 8 -5 7
-11 -1 -21 -8 -10 -8 -14 0 -14 6 0 11 4 11 10 0 5 7 7 15 3 14 -5 14 -8 -2
-27 l-18 -21 23 19 22 19 -32 28 c-39 33 -42 34 -58 14z"/>
<path d="M4120 1580 c-9 -6 -10 -10 -3 -10 6 0 15 5 18 10 8 12 4 12 -15 0z"/>
<path d="M4370 1580 c0 -5 5 -10 11 -10 5 0 7 5 4 10 -3 6 -8 10 -11 10 -2 0
-4 -4 -4 -10z"/>
<path d="M3633 1565 c0 -8 4 -15 9 -15 4 0 8 7 8 15 0 8 -4 15 -8 15 -5 0 -9
-7 -9 -15z"/>
<path d="M3695 1569 c-4 -6 -4 -13 -1 -16 3 -4 6 -1 6 5 0 7 5 12 11 12 5 0 8
-4 5 -8 -3 -5 1 -9 9 -9 11 0 12 4 4 14 -14 16 -26 17 -34 2z"/>
<path d="M3821 1564 c0 -11 3 -14 6 -6 3 7 2 16 -1 19 -3 4 -6 -2 -5 -13z"/>
<path d="M1790 1561 c0 -6 4 -13 10 -16 6 -3 7 1 4 9 -7 18 -14 21 -14 7z"/>
<path d="M3147 1564 c-3 -3 -3 -12 -1 -19 3 -7 1 -16 -5 -20 -6 -3 -11 -12
-11 -18 0 -7 5 -4 11 6 7 12 15 15 22 9 15 -11 48 -12 41 -1 -2 5 -11 6 -19 2
-11 -4 -13 -1 -9 11 5 12 10 13 25 5 11 -5 24 -7 29 -4 6 3 10 -2 10 -11 0
-24 8 -14 13 17 4 22 2 25 -28 24 -18 0 -37 -3 -41 -7 -4 -4 -12 -3 -19 2 -7
5 -14 7 -18 4z m21 -29 c-3 -3 -9 2 -12 12 -6 14 -5 15 5 6 7 -7 10 -15 7 -18z
m78 12 c3 -3 -6 -4 -20 -3 -15 2 -29 6 -32 9 -4 3 6 5 20 3 14 -1 29 -5 32 -9z"/>
<path d="M1827 1546 c-4 -10 -1 -13 8 -9 8 3 12 9 9 14 -7 12 -11 11 -17 -5z"/>
<path d="M3516 1547 c3 -10 9 -15 12 -12 3 3 0 11 -7 18 -10 9 -11 8 -5 -6z"/>
<path d="M3610 1540 c0 -5 5 -10 11 -10 5 0 7 5 4 10 -3 6 -8 10 -11 10 -2 0
-4 -4 -4 -10z"/>
<path d="M3975 1540 c-3 -5 -1 -10 4 -10 6 0 11 5 11 10 0 6 -2 10 -4 10 -3 0
-8 -4 -11 -10z"/>
<path d="M2882 1516 c16 -32 21 -34 13 -6 -7 22 -6 23 8 12 10 -9 17 -10 22
-2 7 12 8 11 -27 14 -24 3 -26 1 -16 -18z"/>
<path d="M3366 1523 c-6 -14 -5 -15 5 -6 7 7 10 15 7 18 -3 3 -9 -2 -12 -12z"/>
<path d="M3733 1525 c0 -8 4 -12 9 -9 5 3 6 10 3 15 -9 13 -12 11 -12 -6z"/>
<path d="M1850 1519 c0 -5 5 -7 10 -4 6 3 10 8 10 11 0 2 -4 4 -10 4 -5 0 -10
-5 -10 -11z"/>
<path d="M3310 1520 c0 -5 6 -9 13 -7 6 1 11 -4 9 -11 -1 -8 2 -11 7 -7 14 8
2 35 -15 35 -8 0 -14 -4 -14 -10z"/>
<path d="M3546 1518 c3 -5 10 -6 15 -3 13 9 11 12 -6 12 -8 0 -12 -4 -9 -9z"/>
<path d="M2655 1509 c-4 -6 -14 -8 -24 -5 -14 6 -14 5 1 -7 16 -13 10 -41 -8
-36 -5 1 -9 -4 -10 -12 -1 -9 1 -10 3 -1 3 7 8 10 13 7 5 -3 14 4 20 15 6 11
8 20 4 20 -3 0 -1 7 6 15 7 8 10 15 7 15 -3 0 -9 -5 -12 -11z"/>
<path d="M1921 1496 c-8 -10 -9 -16 -1 -21 6 -4 9 -1 8 7 -2 7 3 12 10 10 8
-1 11 2 7 8 -8 13 -10 13 -24 -4z"/>
<path d="M2550 1492 c0 -7 4 -11 9 -8 5 3 14 -1 21 -9 15 -18 42 -2 34 20 -7
17 -64 14 -64 -3z m55 -4 c4 -3 2 -9 -3 -12 -5 -3 -15 1 -21 8 -10 11 -9 14 3
12 9 -1 18 -5 21 -8z"/>
<path d="M2365 1490 c-4 -6 -11 -8 -16 -5 -5 3 -6 -1 -3 -9 3 -9 9 -16 13 -17
3 0 13 -2 22 -4 12 -2 15 2 12 16 -7 24 -20 33 -28 19z m15 -16 c0 -8 -5 -12
-10 -9 -6 4 -8 11 -5 16 9 14 15 11 15 -7z"/>
<path d="M2512 1477 c10 -24 13 -25 21 -12 5 9 6 19 3 22 -3 4 -6 0 -6 -7 0
-9 -5 -7 -15 6 -14 18 -14 17 -3 -9z"/>
<path d="M2906 1483 c-6 -14 -5 -15 5 -6 7 7 10 15 7 18 -3 3 -9 -2 -12 -12z"/>
<path d="M3030 1489 c0 -5 5 -7 10 -4 6 3 10 8 10 11 0 2 -4 4 -10 4 -5 0 -10
-5 -10 -11z"/>
<path d="M3296 1487 c3 -10 9 -15 12 -12 3 3 0 11 -7 18 -10 9 -11 8 -5 -6z"/>
<path d="M1977 1475 c-4 -8 -3 -16 1 -19 4 -3 9 4 9 15 2 23 -3 25 -10 4z"/>
<path d="M2312 1485 c4 -4 3 -14 -4 -22 -8 -11 -7 -12 6 -7 19 7 21 20 4 30
-7 4 -10 4 -6 -1z"/>
<path d="M2785 1480 c-3 -6 1 -7 9 -4 18 7 21 14 7 14 -6 0 -13 -4 -16 -10z"/>
<path d="M2950 1481 c0 -6 4 -12 8 -15 5 -3 9 1 9 9 0 8 -4 15 -9 15 -4 0 -8
-4 -8 -9z"/>
<path d="M3066 1482 c-3 -5 1 -9 9 -9 8 0 12 4 9 9 -3 4 -7 8 -9 8 -2 0 -6 -4
-9 -8z"/>
<path d="M3200 1480 c-12 -7 -10 -9 7 -7 12 0 19 5 17 9 -6 10 -6 10 -24 -2z"/>
<path d="M3487 1479 c7 -7 15 -10 18 -7 3 3 -2 9 -12 12 -14 6 -15 5 -6 -5z"/>
<path d="M2244 1459 c-19 -22 -19 -22 4 -8 12 8 22 17 22 21 0 12 -6 9 -26
-13z"/>
<path d="M2869 1463 c-13 -16 -12 -17 4 -4 9 7 17 15 17 17 0 8 -8 3 -21 -13z"/>
<path d="M2930 1471 c0 -6 4 -13 10 -16 6 -3 7 1 4 9 -7 18 -14 21 -14 7z"/>
<path d="M2115 1461 c6 -11 4 -13 -8 -8 -23 9 -21 0 2 -13 15 -7 19 -7 17 5
-1 8 -6 18 -11 22 -4 5 -5 2 0 -6z"/>
<path d="M2146 1462 c-3 -5 1 -9 9 -9 8 0 15 4 15 9 0 4 -4 8 -9 8 -6 0 -12
-4 -15 -8z"/>
<path d="M2550 1466 c0 -2 7 -7 16 -10 8 -3 12 -2 9 4 -6 10 -25 14 -25 6z"/>
<path d="M2710 1460 c0 -5 5 -10 10 -10 6 0 10 5 10 10 0 6 -4 10 -10 10 -5 0
-10 -4 -10 -10z"/>
<path d="M3125 1460 c-3 -6 1 -7 9 -4 18 7 21 14 7 14 -6 0 -13 -4 -16 -10z"/>
<path d="M2055 1449 c-4 -6 -5 -12 -2 -15 2 -3 7 2 10 11 7 17 1 20 -8 4z"/>
<path d="M2410 1451 c0 -6 4 -13 10 -16 6 -3 7 1 4 9 -7 18 -14 21 -14 7z"/>
<path d="M2320 1440 c-8 -5 -10 -10 -5 -10 6 0 17 5 25 10 8 5 11 10 5 10 -5
0 -17 -5 -25 -10z"/>
</g>
</svg>
