<?xml version="1.0" standalone="no"?>
<!DOCTYPE svg PUBLIC "-//W3C//DTD SVG 20010904//EN"
 "http://www.w3.org/TR/2001/REC-SVG-20010904/DTD/svg10.dtd">
<svg version="1.0" xmlns="http://www.w3.org/2000/svg"
 width="723.000000pt" height="723.000000pt" viewBox="0 0 723.000000 723.000000"
 preserveAspectRatio="xMidYMid meet">
<metadata>
Created by potrace 1.14, written by Peter Selinger 2001-2017
</metadata>
<g transform="translate(0.000000,723.000000) scale(0.100000,-0.100000)"
fill="#000000" stroke="none">
<path d="M5925 6187 c-88 -35 -142 -86 -182 -173 -32 -71 -50 -171 -62 -354
-11 -156 -23 -240 -62 -428 -22 -103 -22 -103 -48 -97 -169 43 -395 30 -545
-31 -33 -13 -60 -24 -61 -24 -1 0 0 14 3 30 l4 30 -1143 0 -1144 0 -21 -102
c-12 -57 -50 -239 -85 -405 l-62 -303 -69 0 c-61 0 -69 2 -64 18 3 9 39 184
81 387 42 204 78 378 81 388 5 16 -18 17 -390 17 -367 0 -395 -1 -400 -17 -2
-10 -14 -67 -27 -126 -12 -59 -24 -106 -26 -103 -3 3 -41 220 -43 244 0 1
-147 1 -326 0 l-326 -3 -439 -758 c-241 -417 -439 -761 -439 -763 0 -2 81 -5
181 -6 l181 -3 -71 -49 c-153 -104 -274 -286 -325 -487 -105 -423 58 -794 399
-906 71 -23 94 -26 210 -25 72 1 807 5 1634 9 l1505 8 18 85 c10 47 20 95 23
107 4 19 21 7 128 -100 98 -98 292 -262 361 -304 6 -5 38 -47 69 -95 35 -53
83 -109 125 -145 81 -70 77 -65 128 -189 61 -149 103 -222 164 -285 128 -130
379 -197 709 -186 168 5 222 17 317 73 64 38 156 124 197 187 43 65 55 75 142
123 132 73 184 140 203 267 6 38 16 75 22 82 6 7 61 44 122 82 185 114 279
224 309 364 14 66 7 118 -32 246 -28 90 -30 105 -19 132 7 17 64 79 126 137
187 174 266 329 266 524 0 116 -24 198 -83 291 -92 142 -229 243 -554 406
-281 141 -322 166 -330 203 -15 70 54 242 173 427 92 143 117 195 162 332 127
388 128 684 3 911 -74 133 -266 291 -420 346 -76 26 -195 32 -248 11z m289
-95 c305 -152 447 -416 407 -761 -21 -181 -95 -441 -161 -571 -16 -30 -54 -93
-85 -140 -122 -184 -196 -378 -180 -472 5 -25 18 -47 41 -67 18 -17 141 -84
271 -150 131 -66 281 -148 333 -182 318 -206 403 -460 252 -754 -28 -55 -62
-96 -163 -195 -187 -184 -192 -197 -138 -348 64 -176 39 -294 -86 -418 -34
-33 -114 -93 -179 -133 -64 -40 -123 -83 -131 -94 -8 -12 -19 -53 -25 -91 -6
-38 -17 -83 -24 -100 -20 -46 -76 -95 -169 -147 -61 -34 -91 -58 -117 -95 -56
-79 -172 -190 -228 -218 -86 -44 -153 -56 -303 -56 -292 0 -506 57 -617 164
-58 55 -103 131 -153 257 l-42 104 11 82 c6 45 20 100 32 123 24 48 87 120
104 120 6 0 20 -14 30 -31 23 -39 121 -157 192 -230 82 -86 220 -146 518 -224
118 -31 162 -36 139 -15 -4 5 -69 24 -143 43 -217 57 -388 121 -446 166 -30
23 -171 184 -215 246 -84 115 -96 173 -55 260 23 51 163 265 172 265 3 0 26
-16 52 -36 63 -48 328 -176 532 -257 208 -82 413 -156 454 -164 64 -12 3 25
-102 62 -302 105 -660 253 -782 325 -143 84 -169 124 -170 261 0 99 31 222 80
317 35 69 62 101 119 141 l44 31 51 -41 c124 -99 425 -206 859 -304 144 -33
193 -37 170 -14 -4 4 -62 20 -128 34 -175 37 -403 98 -545 146 -245 81 -376
162 -435 270 -42 76 -40 149 6 283 l35 100 68 13 c141 26 264 80 366 162 71
57 73 58 209 36 52 -9 96 -13 99 -10 14 14 -22 26 -104 36 -49 6 -95 13 -102
15 -8 2 3 23 30 56 109 133 169 290 189 493 17 166 -7 307 -77 446 -51 103
-167 214 -271 261 -24 10 -43 25 -43 31 0 7 9 55 21 107 31 146 57 333 64 470
10 195 37 286 105 364 52 59 102 78 197 73 72 -3 92 -8 167 -45z m-722 -1146
c249 -53 373 -237 355 -526 -7 -115 -27 -191 -75 -290 -47 -98 -168 -223 -261
-269 -228 -115 -524 -87 -675 65 -153 153 -174 444 -50 702 45 94 159 212 251
260 128 67 304 89 455 58z m-4002 -12 c0 -3 38 -251 85 -551 47 -300 85 -552
85 -559 0 -11 -35 -14 -184 -14 l-185 0 -6 58 c-12 113 7 102 -175 102 l-159
0 -43 -80 -43 -80 -193 0 c-123 0 -192 4 -190 10 2 5 147 259 323 564 l320
555 183 1 c100 0 182 -3 182 -6z m810 2 c0 -1 -36 -177 -80 -390 -44 -212 -80
-393 -80 -401 0 -13 34 -15 235 -15 200 0 235 -2 235 -15 0 -8 -13 -78 -30
-155 -16 -77 -30 -143 -30 -145 0 -3 -194 -5 -431 -5 l-431 0 5 23 c10 38 227
1092 227 1099 0 5 86 8 190 8 105 0 190 -2 190 -4z m883 -213 c-25 -120 -78
-373 -117 -563 l-72 -345 -187 -3 c-213 -3 -196 -12 -172 96 8 37 58 276 110
532 53 256 98 473 101 483 5 15 23 17 194 17 l188 0 -45 -217z m437 195 c0
-13 9 -131 20 -263 11 -132 20 -251 20 -265 1 -23 2 -22 20 11 11 20 62 133
113 250 52 118 103 231 113 252 l18 37 193 0 c106 0 193 -2 193 -5 0 -3 -126
-257 -280 -565 l-280 -560 -205 0 -205 0 0 23 c0 13 -20 259 -45 548 -25 288
-45 532 -45 542 0 16 15 17 185 17 l185 0 0 -22z m1063 -195 c-25 -120 -78
-373 -117 -563 l-72 -345 -187 -3 c-160 -2 -187 0 -187 12 0 12 206 1015 225
1094 5 22 7 22 194 22 l189 0 -45 -217z m-3585 -1002 c3 -41 3 -42 -25 -35
-39 9 -39 10 -20 50 22 45 41 39 45 -15z m3763 -61 c85 -39 194 -66 307 -75
50 -4 92 -9 92 -10 0 -2 -16 -52 -36 -111 -46 -138 -45 -205 4 -280 l32 -49
-32 -25 c-70 -52 -117 -112 -148 -186 -67 -161 -88 -321 -55 -418 l15 -44 -77
-114 c-121 -179 -150 -257 -122 -336 10 -29 8 -33 -35 -72 -55 -50 -94 -127
-103 -198 -3 -29 -9 -55 -14 -58 -15 -9 -186 169 -212 221 -82 164 -81 347 5
615 31 96 118 300 129 300 3 0 16 -18 28 -41 13 -22 25 -39 26 -37 8 8 -18
156 -36 210 -35 106 -52 233 -46 363 5 125 35 260 62 281 7 5 21 41 29 78 9
38 19 72 22 77 3 5 27 -6 54 -26 26 -19 76 -48 111 -65z m-319 -147 c-22 -76
-25 -108 -25 -238 0 -127 3 -167 26 -264 l26 -113 -40 -87 c-122 -257 -172
-436 -173 -618 -1 -68 -3 -123 -5 -123 -3 0 -48 33 -100 72 -135 102 -331 300
-331 333 0 15 11 77 25 138 53 230 205 951 205 969 0 17 14 18 208 18 l209 0
-25 -87z m-3419 7 c170 -53 275 -190 290 -377 l4 -53 -182 0 c-196 0 -195 0
-195 52 0 11 -14 33 -30 50 -29 29 -34 30 -99 26 -51 -3 -77 -9 -102 -27 -81
-55 -129 -169 -129 -306 0 -104 21 -153 74 -179 62 -29 185 -16 221 24 18 20
17 20 -48 20 -47 0 -67 4 -67 13 0 6 12 72 27 145 l28 132 247 0 c194 0 248
-3 248 -13 0 -21 -128 -626 -135 -637 -4 -6 -56 -10 -131 -10 l-124 0 0 36 0
35 -27 -19 c-106 -75 -286 -88 -437 -31 -116 43 -218 170 -252 315 -19 83 -14
254 11 349 58 218 215 389 417 454 104 34 283 34 391 1z m807 -162 c24 -95 46
-178 49 -184 3 -7 59 71 125 172 l118 184 474 0 474 0 0 -103 c0 -57 3 -173 7
-257 l6 -153 129 257 128 256 263 -2 c256 -3 262 -3 258 -23 -2 -11 -56 -267
-120 -570 l-118 -550 -181 -3 c-103 -1 -182 1 -182 7 0 4 27 127 60 271 33
145 59 264 57 266 -2 2 -59 -115 -127 -259 -68 -144 -128 -268 -133 -275 -7
-9 -46 -12 -151 -10 l-141 3 -14 283 c-8 155 -16 281 -18 279 -2 -2 -28 -126
-58 -276 -30 -149 -57 -276 -60 -281 -4 -6 -81 -10 -181 -10 -167 0 -174 1
-174 20 0 17 141 698 199 965 11 49 18 91 17 93 -2 2 -118 -145 -257 -325
l-254 -328 -42 -198 c-23 -109 -44 -205 -47 -213 -7 -19 -386 -21 -386 -1 1 6
20 102 44 212 l42 200 -122 363 -123 362 198 0 199 0 42 -172z"/>
<path d="M6330 3006 c0 -2 38 -18 84 -34 110 -40 192 -50 234 -28 18 9 32 18
32 20 0 2 -39 4 -87 3 -61 0 -113 6 -170 21 -85 23 -93 25 -93 18z"/>
<path d="M5256 4636 c-77 -29 -136 -115 -161 -233 -37 -175 -1 -280 104 -298
63 -11 120 11 172 65 64 66 90 138 97 266 5 112 -8 159 -54 189 -35 23 -111
28 -158 11z"/>
<path d="M1157 4366 c-31 -60 -57 -113 -57 -118 0 -4 32 -8 71 -8 l71 0 -7 78
c-4 42 -10 95 -14 117 l-7 40 -57 -109z"/>
</g>
</svg>
